<svg width="32" height="32" viewBox="0 0 32 32" fill="none" xmlns="http://www.w3.org/2000/svg">
<g clip-path="url(#clip0_158_5290)">
<path d="M15.3526 4.16779C15.7552 3.94407 16.2448 3.94407 16.6475 4.16779L28.6475 10.8345C29.0708 11.0696 29.3334 11.5158 29.3334 12C29.3334 12.4842 29.0708 12.9304 28.6475 13.1655L16.6475 19.8323C16.2448 20.0559 15.7552 20.0559 15.3526 19.8323L12 17.9697V19.4949L14.705 20.9977C15.5104 21.4452 16.4896 21.4452 17.2951 20.9977L25.7999 16.2728C25.9698 16.1784 26.1804 16.2917 26.1952 16.4855L26.5752 21.4248C26.6763 22.7384 25.8079 23.9115 24.5562 24.2324C23.5431 24.4924 22.1076 24.8853 21.133 25.2491C19.9202 25.7019 18.4606 26.6048 17.5444 27.2179C16.612 27.8416 15.3883 27.8416 14.4559 27.2179C13.8136 26.7881 12.9042 26.2159 12 25.7561V26.6667C12 27.4031 11.4031 28 10.6667 28C9.93031 28 9.33335 27.4031 9.33335 26.6667V24.7496C8.67342 24.5552 7.99601 24.3741 7.44397 24.2325C6.19234 23.9115 5.32395 22.7384 5.42499 21.4248L5.80494 16.4856C5.81985 16.2917 6.03041 16.1785 6.20033 16.2729L9.33335 18.0135V16.6667C9.33335 16.6087 9.33713 16.5511 9.3445 16.4944L3.3525 13.1655C2.92921 12.9304 2.66669 12.4842 2.66669 12C2.66669 11.5158 2.92921 11.0696 3.3525 10.8345L15.3526 4.16779Z" fill="#323232"/>
</g>
<defs>
<clipPath id="clip0_158_5290">
<rect width="32" height="32" fill="white"/>
</clipPath>
</defs>
</svg>
