<svg width="32" height="32" viewBox="0 0 32 32" fill="none" xmlns="http://www.w3.org/2000/svg">
<path fill-rule="evenodd" clip-rule="evenodd" d="M16 2.66666C8.63622 2.66666 2.66669 8.6362 2.66669 16C2.66669 23.3637 8.63622 29.3333 16 29.3333C23.3638 29.3333 29.3334 23.3637 29.3334 16C29.3334 8.6362 23.3638 2.66666 16 2.66666ZM19.2604 19.7761C19.8731 20.1845 20.701 20.0189 21.1095 19.4063C21.5179 18.7936 21.3523 17.9657 20.7396 17.5572L17.3334 15.2864V9.33333C17.3334 8.59696 16.7364 8 16 8C15.2636 8 14.6667 8.59696 14.6667 9.33333V15.3333V15.3595C14.6667 16.2055 15.0895 16.9955 15.7935 17.4648L19.2604 19.7761Z" fill="#201A13"/>
<path fill-rule="evenodd" clip-rule="evenodd" d="M6.27617 3.05718C6.79686 3.57789 6.79686 4.4221 6.27617 4.94281L4.94283 6.27614C4.42213 6.79684 3.57791 6.79684 3.05721 6.27614C2.53651 5.75544 2.53651 4.91122 3.05721 4.39052L4.39054 3.05718C4.91125 2.53649 5.75546 2.53649 6.27617 3.05718Z" fill="#201A13"/>
<path fill-rule="evenodd" clip-rule="evenodd" d="M25.7239 3.05718C25.2032 3.57789 25.2032 4.4221 25.7239 4.94281L27.0572 6.27614C27.5779 6.79684 28.4221 6.79684 28.9428 6.27614C29.4635 5.75544 29.4635 4.91122 28.9428 4.39052L27.6095 3.05718C27.0888 2.53649 26.2445 2.53649 25.7239 3.05718Z" fill="#201A13"/>
</svg>
