<svg width="32" height="32" viewBox="0 0 32 32" fill="none" xmlns="http://www.w3.org/2000/svg">
<g clip-path="url(#clip0_78_5621)">
<path fill-rule="evenodd" clip-rule="evenodd" d="M2.66669 16C2.66669 8.6362 8.63622 2.66667 16 2.66667C23.3638 2.66667 29.3334 8.6362 29.3334 16C29.3334 23.3637 23.3638 29.3333 16 29.3333C8.63622 29.3333 2.66669 23.3637 2.66669 16ZM14.6667 17.3333C14.6667 18.0697 15.2636 18.6667 16 18.6667C16.7364 18.6667 17.3334 18.0697 17.3334 17.3333V10.6667C17.3334 9.93029 16.7364 9.33333 16 9.33333C15.2636 9.33333 14.6667 9.93029 14.6667 10.6667V17.3333ZM17.3334 21.3184C17.3334 20.582 16.7364 19.9851 16 19.9851C15.2636 19.9851 14.6667 20.582 14.6667 21.3184V21.3333C14.6667 22.0697 15.2636 22.6667 16 22.6667C16.7364 22.6667 17.3334 22.0697 17.3334 21.3333V21.3184Z" fill="#201A13"/>
</g>
<defs>
<clipPath id="clip0_78_5621">
<rect width="32" height="32" fill="white"/>
</clipPath>
</defs>
</svg>
