<svg width="32" height="32" viewBox="0 0 32 32" fill="none" xmlns="http://www.w3.org/2000/svg">
<g clip-path="url(#clip0_78_5609)">
<path fill-rule="evenodd" clip-rule="evenodd" d="M14.6667 17.3333C14.6667 18.0697 15.2636 18.6667 16 18.6667C16.7364 18.6667 17.3334 18.0697 17.3334 17.3333V13.3333C17.3334 12.597 16.7364 12 16 12C15.2636 12 14.6667 12.597 14.6667 13.3333V17.3333ZM17.3334 21.3184C17.3334 20.582 16.7364 19.9851 16 19.9851C15.2636 19.9851 14.6667 20.582 14.6667 21.3184V21.3333C14.6667 22.0697 15.2636 22.6667 16 22.6667C16.7364 22.6667 17.3334 22.0697 17.3334 21.3333V21.3184ZM12.5032 6.21514C14.0272 3.4719 17.9724 3.4719 19.4964 6.21514L28.2978 22.0575C29.7788 24.7236 27.851 28 24.8011 28H7.19851C4.14856 28 2.2207 24.7236 3.70187 22.0575L12.5032 6.21514Z" fill="#201A13"/>
</g>
<defs>
<clipPath id="clip0_78_5609">
<rect width="32" height="32" fill="white"/>
</clipPath>
</defs>
</svg>
