<svg width="32" height="32" viewBox="0 0 32 32" fill="none" xmlns="http://www.w3.org/2000/svg">
<g clip-path="url(#clip0_79_5641)">
<path fill-rule="evenodd" clip-rule="evenodd" d="M9.3333 10.6667C8.59692 10.6667 7.99996 11.2636 7.99996 12C7.99996 12.7364 8.59692 13.3333 9.3333 13.3333H22.6666C23.403 13.3333 24 12.7364 24 12C24 11.2636 23.403 10.6667 22.6666 10.6667H9.3333ZM9.3333 14.6667C8.59692 14.6667 7.99996 15.2636 7.99996 16C7.99996 16.7364 8.59692 17.3333 9.3333 17.3333H17.3333C18.0697 17.3333 18.6666 16.7364 18.6666 16C18.6666 15.2636 18.0697 14.6667 17.3333 14.6667H9.3333ZM9.24552 2.66667C9.27468 2.66667 9.30395 2.66667 9.3333 2.66667H22.7544C23.9364 2.6666 24.9548 2.66655 25.7704 2.7762C26.6444 2.89371 27.4822 3.15869 28.1617 3.83824C28.8413 4.5178 29.1062 5.3556 29.2238 6.22961C29.3334 7.04517 29.3334 8.0636 29.3333 9.2456V17.4211C29.3334 18.6031 29.3334 19.6215 29.2238 20.4371C29.1062 21.3111 28.8413 22.1489 28.1617 22.8284C27.4822 23.508 26.6444 23.7729 25.7704 23.8905C24.9548 24.0001 23.9364 24.0001 22.7544 24H20.0724L17.312 28.4165C16.706 29.3861 15.294 29.3861 14.688 28.4165L11.9276 24H9.24556C8.06356 24.0001 7.04514 24.0001 6.22958 23.8905C5.35556 23.7729 4.51776 23.508 3.8382 22.8284C3.15866 22.1489 2.89367 21.3111 2.77616 20.4371C2.66651 19.6215 2.66656 18.6031 2.66663 17.4211V9.33333C2.66663 9.30399 2.66663 9.27472 2.66663 9.24556C2.66656 8.06359 2.66651 7.04516 2.77616 6.22961C2.89367 5.3556 3.15866 4.5178 3.8382 3.83824C4.51776 3.15869 5.35556 2.89371 6.22958 2.7762C7.04512 2.66655 8.06355 2.6666 9.24552 2.66667Z" fill="#201A13"/>
</g>
<defs>
<clipPath id="clip0_79_5641">
<rect width="32" height="32" fill="white"/>
</clipPath>
</defs>
</svg>
