<svg width="32" height="32" viewBox="0 0 32 32" fill="none" xmlns="http://www.w3.org/2000/svg">
<g clip-path="url(#clip0_137_9510)">
<path d="M32 0H0V32H32V0Z" fill="white"/>
<path fill-rule="evenodd" clip-rule="evenodd" d="M29.3332 8.66663C29.3332 9.22226 29.3397 9.69479 29.2564 10.1137C28.9407 11.7004 27.7004 12.9408 26.1136 13.2564C25.7231 13.3341 25.286 13.3337 24.7784 13.3333C18.9261 13.3287 13.0737 13.3287 7.22139 13.3333C6.71379 13.3337 6.27667 13.3341 5.8862 13.2564C4.29944 12.9408 3.05905 11.7004 2.74343 10.1137C2.66011 9.69479 2.66656 9.22226 2.66656 8.66662C2.66656 8.11099 2.66011 7.63846 2.74343 7.21959C3.05905 5.63283 4.29944 4.39244 5.8862 4.07682C6.27667 3.99915 6.71379 3.9995 7.22139 3.9999C13.0737 4.00456 18.9261 4.00456 24.7784 3.9999C25.286 3.9995 25.7231 3.99915 26.1136 4.07682C27.7004 4.39244 28.9407 5.63283 29.2564 7.21959C29.3397 7.63846 29.3332 8.11099 29.3332 8.66663Z" fill="#323232"/>
<path fill-rule="evenodd" clip-rule="evenodd" d="M4 21.4209V13.9524C4.49623 14.2389 5.04352 14.4481 5.62578 14.564C6.14804 14.6679 6.70154 14.6672 7.1609 14.6667L7.22215 14.6665C13.0738 14.6619 18.9255 14.6619 24.7771 14.6665L24.8383 14.6667C25.2976 14.6672 25.8512 14.6679 26.3735 14.564C26.956 14.4481 27.5036 14.2388 28 13.952V21.4209C28.0001 22.6029 28.0001 23.6213 27.8905 24.4369C27.7729 25.3109 27.508 26.1488 26.8284 26.8283C26.1489 27.5079 25.3111 27.7728 24.4371 27.8904C23.6215 28 22.6031 28 21.4211 27.9999H10.5789C9.39692 28 8.3785 28 7.56295 27.8904C6.68894 27.7728 5.85114 27.5079 5.17158 26.8283C4.49203 26.1488 4.22704 25.3109 4.10954 24.4369C3.99988 23.6213 3.99994 22.6029 4 21.4209ZM12 16C11.2636 16 10.6667 16.5969 10.6667 17.3333C10.6667 18.0697 11.2636 18.6667 12 18.6667H20C20.7364 18.6667 21.3333 18.0697 21.3333 17.3333C21.3333 16.5969 20.7364 16 20 16H12Z" fill="#323232"/>
</g>
<defs>
<clipPath id="clip0_137_9510">
<rect width="32" height="32" fill="white"/>
</clipPath>
</defs>
</svg>
