<svg width="32" height="32" viewBox="0 0 32 32" fill="none" xmlns="http://www.w3.org/2000/svg">
<g clip-path="url(#clip0_78_5618)">
<path fill-rule="evenodd" clip-rule="evenodd" d="M2.66663 16C2.66663 8.6362 8.63616 2.66667 16 2.66667C23.3637 2.66667 29.3333 8.6362 29.3333 16C29.3333 23.3637 23.3637 29.3333 16 29.3333C8.63616 29.3333 2.66663 23.3637 2.66663 16ZM15.6094 12.9428C16.1301 12.4221 16.1301 11.5779 15.6094 11.0572C15.0888 10.5365 14.2445 10.5365 13.7238 11.0572L9.83987 14.9412C9.81977 14.9612 9.80037 14.9817 9.78165 15.0027C9.5066 15.2469 9.33329 15.6032 9.33329 16C9.33329 16.3968 9.5066 16.7531 9.78165 16.9973C9.80036 17.0183 9.81977 17.0388 9.83987 17.0588L13.7238 20.9428C14.2445 21.4635 15.0888 21.4635 15.6094 20.9428C16.1301 20.4221 16.1301 19.5779 15.6094 19.0572L13.8856 17.3333H21.3333C22.0697 17.3333 22.6666 16.7364 22.6666 16C22.6666 15.2636 22.0697 14.6667 21.3333 14.6667H13.8856L15.6094 12.9428Z" fill="#201A13"/>
</g>
<defs>
<clipPath id="clip0_78_5618">
<rect width="32" height="32" fill="white"/>
</clipPath>
</defs>
</svg>
