<svg width="32" height="32" viewBox="0 0 32 32" fill="none" xmlns="http://www.w3.org/2000/svg">
<g clip-path="url(#clip0_78_5616)">
<path fill-rule="evenodd" clip-rule="evenodd" d="M2.66663 16C2.66663 8.6362 8.63616 2.66667 16 2.66667C23.3637 2.66667 29.3333 8.6362 29.3333 16C29.3333 23.3637 23.3637 29.3333 16 29.3333C8.63616 29.3333 2.66663 23.3637 2.66663 16ZM17.3333 10.6667C17.3333 9.93029 16.7364 9.33333 16 9.33333C15.2636 9.33333 14.6666 9.93029 14.6666 10.6667V18.1144L12.9428 16.3905C12.4221 15.8699 11.5779 15.8699 11.0571 16.3905C10.5365 16.9112 10.5365 17.7555 11.0571 18.2761L14.9412 22.1601C14.9612 22.1801 14.9817 22.1996 15.0026 22.2183C15.2469 22.4933 15.6032 22.6667 16 22.6667C16.3968 22.6667 16.753 22.4933 16.9973 22.2183C17.0182 22.1996 17.0388 22.1801 17.0588 22.1601L20.9428 18.2761C21.4634 17.7555 21.4634 16.9112 20.9428 16.3905C20.4221 15.8699 19.5778 15.8699 19.0572 16.3905L17.3333 18.1144V10.6667Z" fill="#201A13"/>
</g>
<defs>
<clipPath id="clip0_78_5616">
<rect width="32" height="32" fill="white"/>
</clipPath>
</defs>
</svg>
