<svg width="32" height="32" viewBox="0 0 32 32" fill="none" xmlns="http://www.w3.org/2000/svg">
<g clip-path="url(#clip0_78_5617)">
<path fill-rule="evenodd" clip-rule="evenodd" d="M2.66663 16C2.66663 8.6362 8.63616 2.66667 16 2.66667C23.3637 2.66667 29.3333 8.6362 29.3333 16C29.3333 23.3637 23.3637 29.3333 16 29.3333C8.63616 29.3333 2.66663 23.3637 2.66663 16ZM16.3905 19.0572C15.8698 19.5779 15.8698 20.4221 16.3905 20.9428C16.9112 21.4635 17.7554 21.4635 18.2761 20.9428L22.1601 17.0588C22.1801 17.0388 22.1996 17.0183 22.2182 16.9973C22.4933 16.7531 22.6666 16.3968 22.6666 16C22.6666 15.6032 22.4933 15.2469 22.2182 15.0027C22.1996 14.9817 22.1801 14.9612 22.1601 14.9412L18.2761 11.0572C17.7554 10.5365 16.9112 10.5365 16.3905 11.0572C15.8698 11.5779 15.8698 12.4221 16.3905 12.9428L18.1144 14.6667H10.6666C9.93025 14.6667 9.33329 15.2636 9.33329 16C9.33329 16.7364 9.93025 17.3333 10.6666 17.3333H18.1144L16.3905 19.0572Z" fill="#201A13"/>
</g>
<defs>
<clipPath id="clip0_78_5617">
<rect width="32" height="32" fill="white"/>
</clipPath>
</defs>
</svg>
