<svg width="32" height="32" viewBox="0 0 32 32" fill="none" xmlns="http://www.w3.org/2000/svg">
<g clip-path="url(#clip0_78_5604)">
<path fill-rule="evenodd" clip-rule="evenodd" d="M16.9428 12.3905C16.4222 11.8698 15.5779 11.8698 15.0572 12.3905C14.5366 12.9112 14.5366 13.7555 15.0572 14.2761L16.7811 16L15.0572 17.7239C14.5366 18.2445 14.5366 19.0888 15.0572 19.6095C15.5779 20.1301 16.4222 20.1301 16.9428 19.6095L18.6667 17.8856L20.3906 19.6095C20.9112 20.1301 21.7555 20.1301 22.2762 19.6095C22.7968 19.0888 22.7968 18.2445 22.2762 17.7239L20.5523 16L22.2762 14.2761C22.7968 13.7555 22.7968 12.9112 22.2762 12.3905C21.7555 11.8698 20.9112 11.8698 20.3906 12.3905L18.6667 14.1144L16.9428 12.3905ZM11.7012 6.32303C12.4304 5.685 13.3663 5.33334 14.3352 5.33334H21.8026C23.109 5.33334 24.2496 5.40159 25.2132 5.61575C26.192 5.83327 27.0678 6.21862 27.7579 6.90871C28.448 7.5988 28.8334 8.47462 29.0508 9.45336C29.265 10.417 29.3332 11.5577 29.3332 12.864V19.136C29.3332 20.4423 29.265 21.5831 29.0508 22.5467C28.8334 23.5253 28.448 24.4012 27.7579 25.0913C27.0678 25.7813 26.192 26.1668 25.2132 26.3843C24.2496 26.5984 23.109 26.6667 21.8026 26.6667H14.3352C13.3663 26.6667 12.4304 26.3149 11.7012 25.6769L4.08217 19.0103C2.26087 17.4167 2.26085 14.5833 4.08216 12.9897L11.7012 6.32303Z" fill="#201A13"/>
</g>
<defs>
<clipPath id="clip0_78_5604">
<rect width="32" height="32" fill="white"/>
</clipPath>
</defs>
</svg>
