<svg width="32" height="32" viewBox="0 0 32 32" fill="none" xmlns="http://www.w3.org/2000/svg">
<g clip-path="url(#clip0_78_5625)">
<path fill-rule="evenodd" clip-rule="evenodd" d="M9.66717 6.21807C10.8268 4.48972 12.831 2.66667 16.0002 2.66667C19.1694 2.66667 21.1736 4.48972 22.3332 6.21807C23.4767 7.92232 23.9006 9.6632 23.9616 9.93016C23.9702 9.96772 23.9764 9.999 23.9806 10.0205L26.0268 20.5717C26.5056 23.0404 24.6147 25.3333 22.1 25.3333H9.90039C7.38573 25.3333 5.49479 23.0404 5.97357 20.5717L8.01987 10.0205C8.02405 9.999 8.03022 9.96772 8.03882 9.93016C8.0999 9.6632 8.52369 7.92232 9.66717 6.21807Z" fill="#201A13"/>
<path d="M11.3516 26.6667C11.6875 27.3076 12.202 27.9775 12.9821 28.4896C13.7951 29.0233 14.8175 29.3333 16.0621 29.3333C17.3067 29.3333 18.3291 29.0233 19.1421 28.4896C19.9221 27.9775 20.4367 27.3076 20.7727 26.6667H11.3516Z" fill="#201A13"/>
</g>
<defs>
<clipPath id="clip0_78_5625">
<rect width="32" height="32" fill="white"/>
</clipPath>
</defs>
</svg>
