<svg width="32" height="32" viewBox="0 0 32 32" fill="none" xmlns="http://www.w3.org/2000/svg">
<path fill-rule="evenodd" clip-rule="evenodd" d="M9.66698 6.21807C10.8266 4.48972 12.8308 2.66667 16 2.66667C19.1692 2.66667 21.1735 4.48972 22.3331 6.21807C23.4765 7.92232 23.9003 9.6632 23.9615 9.93016C23.97 9.96772 23.9761 9.999 23.9804 10.0205L26.0267 20.5717C26.5055 23.0404 24.6145 25.3333 22.0999 25.3333H9.90021C7.38554 25.3333 5.49461 23.0404 5.97338 20.5717L8.01968 10.0205C8.02385 9.999 8.03004 9.96772 8.03862 9.93016C8.09972 9.6632 8.52349 7.92232 9.66698 6.21807Z" fill="#201A13"/>
<path d="M11.3514 26.6667C11.6873 27.3076 12.2018 27.9775 12.9819 28.4896C13.7949 29.0233 14.8173 29.3333 16.0618 29.3333C17.3065 29.3333 18.3289 29.0233 19.142 28.4896C19.922 27.9775 20.4365 27.3076 20.7724 26.6667H11.3514Z" fill="#201A13"/>
<path fill-rule="evenodd" clip-rule="evenodd" d="M23.0572 3.05719C22.5365 3.57789 22.5365 4.42211 23.0572 4.94281C24.1587 6.04432 24.7399 7.12371 25.3732 9.65672C25.5517 10.3711 26.2756 10.8055 26.99 10.6269C27.7044 10.4483 28.1388 9.72435 27.9603 9.00995C27.2601 6.20963 26.508 4.62235 24.9428 3.05719C24.4221 2.53649 23.5779 2.53649 23.0572 3.05719Z" fill="#201A13"/>
<path fill-rule="evenodd" clip-rule="evenodd" d="M8.94282 3.05719C9.46351 3.57789 9.46351 4.42211 8.94282 4.94281C7.84131 6.04432 7.26011 7.12371 6.62686 9.65672C6.44827 10.3711 5.72435 10.8055 5.00997 10.6269C4.29557 10.4483 3.86122 9.72435 4.03982 9.00995C4.7399 6.20963 5.49205 4.62235 7.05721 3.05719C7.5779 2.53649 8.42211 2.53649 8.94282 3.05719Z" fill="#201A13"/>
</svg>
