<svg width="32" height="32" viewBox="0 0 32 32" fill="none" xmlns="http://www.w3.org/2000/svg">
<g clip-path="url(#clip0_136_12171)">
<path fill-rule="evenodd" clip-rule="evenodd" d="M7.66549 3.02069C8.86345 2.75445 10.2971 2.66667 11.968 2.66667H20.032C21.7028 2.66667 23.1365 2.75445 24.3344 3.02069C25.5476 3.29029 26.5992 3.76028 27.4194 4.58057C28.2397 5.40087 28.7097 6.45244 28.9793 7.66553C29.2456 8.86349 29.3333 10.2972 29.3333 11.968V20.032C29.3333 21.7028 29.2456 23.1365 28.9793 24.3344C28.7097 25.5476 28.2397 26.5992 27.4194 27.4195C26.5992 28.2397 25.5476 28.7097 24.3344 28.9793C23.1365 29.2456 21.7028 29.3333 20.032 29.3333H11.968C10.2971 29.3333 8.86345 29.2456 7.66549 28.9793C6.4524 28.7097 5.40083 28.2397 4.58053 27.4195C3.76024 26.5992 3.29025 25.5476 3.02065 24.3344C2.75441 23.1365 2.66663 21.7028 2.66663 20.032V11.968C2.66663 10.2972 2.75441 8.86349 3.02065 7.66553C3.29025 6.45244 3.76024 5.40087 4.58053 4.58057C5.40083 3.76028 6.4524 3.29029 7.66549 3.02069ZM9.33329 5.33333C10.0697 5.33333 10.6666 5.93029 10.6666 6.66667V13.4157C10.6666 14.5871 12.1695 15.0687 12.8503 14.1156C14.394 11.9544 17.606 11.9544 19.1496 14.1156C19.8304 15.0687 21.3333 14.5871 21.3333 13.4157V6.66667C21.3333 5.93029 21.9302 5.33333 22.6666 5.33333C23.403 5.33333 24 5.93029 24 6.66667V13.4157C24 17.1813 19.1684 18.7296 16.9797 15.6656C16.4996 14.9933 15.5004 14.9933 15.0202 15.6656C12.8316 18.7296 7.99996 17.1813 7.99996 13.4157V6.66667C7.99996 5.93029 8.59692 5.33333 9.33329 5.33333Z" fill="#201A13"/>
</g>
<defs>
<clipPath id="clip0_136_12171">
<rect width="32" height="32" fill="white"/>
</clipPath>
</defs>
</svg>
