<svg width="32" height="32" viewBox="0 0 32 32" fill="none" xmlns="http://www.w3.org/2000/svg">
<g clip-path="url(#clip0_78_5606)">
<path fill-rule="evenodd" clip-rule="evenodd" d="M9.13981 3.11122C9.87448 2.8803 10.7633 2.66666 11.6 2.66666C12.8738 2.66666 14.327 3.1685 15.2509 3.53913C15.7278 3.73044 16.2721 3.73045 16.749 3.53913C17.6729 3.1685 19.1261 2.66666 20.4 2.66666C21.2366 2.66666 22.1254 2.8803 22.8601 3.11122C23.6138 3.34814 24.3021 3.63484 24.7652 3.8424C24.9902 3.94328 25.2421 4.00258 25.5077 4.01537C26.6041 4.06817 27.788 4.27574 28.5538 5.25401C29.2476 6.14022 29.3333 7.35976 29.3333 8.53326V24.8C29.3333 25.9735 29.2476 27.1931 28.5538 28.0792C27.788 29.0575 26.6042 29.2651 25.5077 29.3179C24.8184 29.3511 24.1902 29.1737 23.6744 28.9424C23.2668 28.7597 22.681 28.5169 22.0605 28.3219C21.4208 28.1208 20.835 28 20.4 28C19.6801 28 18.6408 28.3201 17.7418 28.6808C16.6277 29.1277 15.3722 29.1277 14.2581 28.6808C13.3592 28.3201 12.3198 28 11.6 28C11.1649 28 10.5791 28.1208 9.93947 28.3219C9.31887 28.5169 8.73312 28.7597 8.3256 28.9424C7.80968 29.1737 7.18152 29.3511 6.49221 29.3179C5.39576 29.2651 4.21191 29.0575 3.44607 28.0792C2.75229 27.1931 2.66663 25.9735 2.66663 24.8V8.53326C2.66663 7.35976 2.75229 6.14022 3.44608 5.25401C4.21192 4.27574 5.39579 4.06817 6.49225 4.01537C6.75783 4.00258 7.00969 3.94328 7.23476 3.8424C7.69777 3.63484 8.38607 3.34813 9.13981 3.11122ZM16 6C16.7364 6 17.3333 6.59696 17.3333 7.33333V25.3333C17.3333 26.0697 16.7364 26.6667 16 26.6667C15.2636 26.6667 14.6666 26.0697 14.6666 25.3333V7.33333C14.6666 6.59696 15.2636 6 16 6Z" fill="#201A13"/>
</g>
<defs>
<clipPath id="clip0_78_5606">
<rect width="32" height="32" fill="white"/>
</clipPath>
</defs>
</svg>
