<svg width="32" height="32" viewBox="0 0 32 32" fill="none" xmlns="http://www.w3.org/2000/svg">
<g clip-path="url(#clip0_263_13390)">
<path d="M11.5556 1.77778C9.89444 1.77778 8.51667 2.91667 8.12222 4.45556C8.07778 4.45556 8.04444 4.44445 8 4.44445C6.03889 4.44445 4.44444 6.03889 4.44444 8C4.44444 8.26667 4.47778 8.52778 4.53889 8.77778C2.91667 9.44444 1.77778 11.0333 1.77778 12.8889C1.77778 13.5889 1.95556 14.2389 2.23889 14.8278C0.905556 15.5944 0 17.0167 0 18.6667C0 20.5167 1.13333 22.1056 2.74444 22.7722C2.69444 23.0278 2.66667 23.2889 2.66667 23.5556C2.66667 25.7667 4.45556 27.5556 6.66667 27.5556C6.89444 27.5556 7.11667 27.5278 7.33333 27.4889C7.86667 29.0722 9.34444 30.2222 11.1111 30.2222C13.3222 30.2222 15.1111 28.4333 15.1111 26.2222V5.33333C15.1111 3.37222 13.5167 1.77778 11.5556 1.77778ZM32 18.6667C32 17.0167 31.0944 15.5944 29.7611 14.8278C30.05 14.2389 30.2222 13.5889 30.2222 12.8889C30.2222 11.0333 29.0833 9.44444 27.4611 8.77778C27.5167 8.52778 27.5556 8.26667 27.5556 8C27.5556 6.03889 25.9611 4.44445 24 4.44445C23.9556 4.44445 23.9167 4.45556 23.8778 4.45556C23.4833 2.91667 22.1056 1.77778 20.4444 1.77778C18.4833 1.77778 16.8889 3.36667 16.8889 5.33333V26.2222C16.8889 28.4333 18.6778 30.2222 20.8889 30.2222C22.6556 30.2222 24.1333 29.0722 24.6667 27.4889C24.8833 27.5278 25.1056 27.5556 25.3333 27.5556C27.5444 27.5556 29.3333 25.7667 29.3333 23.5556C29.3333 23.2889 29.3056 23.0278 29.2556 22.7722C30.8667 22.1056 32 20.5167 32 18.6667Z" fill="black"/>
</g>
<defs>
<clipPath id="clip0_263_13390">
<rect width="32" height="32" fill="white"/>
</clipPath>
</defs>
</svg>
