<svg width="32" height="32" viewBox="0 0 32 32" fill="none" xmlns="http://www.w3.org/2000/svg">
<path fill-rule="evenodd" clip-rule="evenodd" d="M16 2.66667C16.7364 2.66667 17.3334 3.26363 17.3334 4V5.33333C17.3334 6.06971 16.7364 6.66667 16 6.66667C15.2636 6.66667 14.6667 6.06971 14.6667 5.33333V4C14.6667 3.26363 15.2636 2.66667 16 2.66667Z" fill="#201A13"/>
<path fill-rule="evenodd" clip-rule="evenodd" d="M26.2762 5.72385C26.7968 6.24456 26.7968 7.08877 26.2762 7.60948L24.9428 8.94281C24.4222 9.46351 23.5779 9.46351 23.0572 8.94281C22.5366 8.42211 22.5366 7.57789 23.0572 7.05719L24.3906 5.72385C24.9112 5.20316 25.7555 5.20316 26.2762 5.72385Z" fill="#201A13"/>
<path fill-rule="evenodd" clip-rule="evenodd" d="M25.3334 16C25.3334 15.2636 25.9303 14.6667 26.6667 14.6667H28C28.7364 14.6667 29.3334 15.2636 29.3334 16C29.3334 16.7364 28.7364 17.3333 28 17.3333H26.6667C25.9303 17.3333 25.3334 16.7364 25.3334 16Z" fill="#201A13"/>
<path fill-rule="evenodd" clip-rule="evenodd" d="M2.66669 16C2.66669 15.2636 3.26365 14.6667 4.00002 14.6667H5.33335C6.06973 14.6667 6.66669 15.2636 6.66669 16C6.66669 16.7364 6.06973 17.3333 5.33335 17.3333H4.00002C3.26365 17.3333 2.66669 16.7364 2.66669 16Z" fill="#201A13"/>
<path fill-rule="evenodd" clip-rule="evenodd" d="M5.72383 5.72385C6.24454 5.20316 7.08875 5.20316 7.60946 5.72385L8.94279 7.05719C9.46349 7.57789 9.46349 8.42211 8.94279 8.94281C8.42209 9.46351 7.57787 9.46351 7.05717 8.94281L5.72383 7.60948C5.20314 7.08877 5.20314 6.24456 5.72383 5.72385Z" fill="#201A13"/>
<path fill-rule="evenodd" clip-rule="evenodd" d="M16 8C11.5817 8 8 11.5817 8 16C8 18.1776 8.87183 20.1543 10.2825 21.5955C10.6396 21.9604 10.8321 22.2956 10.8916 22.5925L11.597 26.1181C11.9711 27.9877 13.6127 29.3333 15.5193 29.3333H16.4807C18.3873 29.3333 20.0289 27.9877 20.4029 26.1181L21.1084 22.5925C21.1679 22.2956 21.3604 21.9604 21.7175 21.5955C23.1281 20.1543 24 18.1776 24 16C24 11.5817 20.4183 8 16 8ZM14.6667 21.3333C13.9303 21.3333 13.3333 21.9303 13.3333 22.6667C13.3333 23.4031 13.9303 24 14.6667 24H17.3333C18.0697 24 18.6667 23.4031 18.6667 22.6667C18.6667 21.9303 18.0697 21.3333 17.3333 21.3333H14.6667Z" fill="#201A13"/>
</svg>
