<svg width="32" height="32" viewBox="0 0 32 32" fill="none" xmlns="http://www.w3.org/2000/svg">
<path fill-rule="evenodd" clip-rule="evenodd" d="M16 8C11.5817 8 8 11.5817 8 16C8 18.1776 8.87183 20.1543 10.2825 21.5955C10.6396 21.9604 10.8321 22.2956 10.8916 22.5925L11.597 26.1181C11.9711 27.9877 13.6127 29.3333 15.5193 29.3333H16.4807C18.3873 29.3333 20.0289 27.9877 20.4029 26.1181L21.1084 22.5925C21.1679 22.2956 21.3604 21.9604 21.7175 21.5955C23.1281 20.1543 24 18.1776 24 16C24 11.5817 20.4183 8 16 8ZM14.6667 21.3333C13.9303 21.3333 13.3333 21.9303 13.3333 22.6667C13.3333 23.4031 13.9303 24 14.6667 24H17.3333C18.0697 24 18.6667 23.4031 18.6667 22.6667C18.6667 21.9303 18.0697 21.3333 17.3333 21.3333H14.6667Z" fill="#201A13"/>
</svg>
