<svg width="32" height="32" viewBox="0 0 32 32" fill="none" xmlns="http://www.w3.org/2000/svg">
<g clip-path="url(#clip0_79_5642)">
<path d="M2.66879 13.3333C2.66732 13.4703 2.66663 13.6089 2.66663 13.7493V20.9173C2.66663 22.4059 2.74465 23.6931 2.98484 24.7739C3.2284 25.8699 3.65608 26.8335 4.41127 27.5887C5.16647 28.3439 6.13015 28.7716 7.22608 29.0151C8.30687 29.2553 9.59405 29.3333 11.0826 29.3333H20.9173C22.4058 29.3333 23.693 29.2553 24.7738 29.0151C25.8698 28.7716 26.8334 28.3439 27.5886 27.5887C28.3438 26.8335 28.7716 25.8699 29.015 24.7739C29.2553 23.6931 29.3333 22.4059 29.3333 20.9173V13.7493C29.3333 13.6089 29.3326 13.4703 29.3312 13.3333H2.66879Z" fill="#201A13"/>
<path d="M6.66651 5.79611V4C6.66651 3.26363 7.26345 2.66667 7.99984 2.66667C8.73621 2.66667 9.33317 3.26363 9.33317 4V5.37969C9.88135 5.34677 10.4646 5.33333 11.0825 5.33333H20.9172C21.5352 5.33333 22.1184 5.34677 22.6665 5.37969V4C22.6665 3.26363 23.2634 2.66667 23.9998 2.66667C24.7362 2.66667 25.3332 3.26363 25.3332 4V5.79611C26.1986 6.05379 26.9646 6.45413 27.5885 7.07797C28.3437 7.83317 28.7714 8.79685 29.0149 9.89279C29.0698 10.14 29.1164 10.3979 29.1553 10.6667H2.84436C2.88333 10.3979 2.92979 10.14 2.98472 9.89279C3.22828 8.79685 3.65596 7.83317 4.41115 7.07797C5.03499 6.45413 5.80111 6.05379 6.66651 5.79611Z" fill="#201A13"/>
</g>
<defs>
<clipPath id="clip0_79_5642">
<rect width="32" height="32" fill="white"/>
</clipPath>
</defs>
</svg>
