<svg width="32" height="32" viewBox="0 0 32 32" fill="none" xmlns="http://www.w3.org/2000/svg">
<g clip-path="url(#clip0_79_5643)">
<path fill-rule="evenodd" clip-rule="evenodd" d="M6.66663 4V5.79611C5.80123 6.05379 5.03511 6.45413 4.41127 7.07797C3.65608 7.83317 3.2284 8.79685 2.98484 9.89279C2.74465 10.9736 2.66663 12.2608 2.66663 13.7493V20.9173C2.66663 22.4059 2.74465 23.6931 2.98484 24.7739C3.2284 25.8699 3.65608 26.8335 4.41127 27.5887C5.16647 28.3439 6.13015 28.7716 7.22608 29.0151C8.30687 29.2553 9.59405 29.3333 11.0826 29.3333H20.9173C22.4058 29.3333 23.693 29.2553 24.7738 29.0151C25.8698 28.7716 26.8334 28.3439 27.5886 27.5887C28.3438 26.8335 28.7716 25.8699 29.015 24.7739C29.2553 23.6931 29.3333 22.4059 29.3333 20.9173V13.7493C29.3333 12.2608 29.2553 10.9736 29.015 9.89279C28.7716 8.79685 28.3438 7.83317 27.5886 7.07797C26.9648 6.45413 26.1988 6.05379 25.3333 5.79611V4C25.3333 3.26363 24.7364 2.66667 24 2.66667C23.2636 2.66667 22.6666 3.26363 22.6666 4V5.37969C22.1185 5.34677 21.5353 5.33333 20.9173 5.33333H11.0826C10.4647 5.33333 9.88147 5.34677 9.33329 5.37969V4C9.33329 3.26363 8.73633 2.66667 7.99996 2.66667C7.26359 2.66667 6.66663 3.26363 6.66663 4ZM7.99996 12C7.99996 11.2636 8.59692 10.6667 9.33329 10.6667H22.6666C23.403 10.6667 24 11.2636 24 12C24 12.7364 23.403 13.3333 22.6666 13.3333H9.33329C8.59692 13.3333 7.99996 12.7364 7.99996 12Z" fill="#201A13"/>
</g>
<defs>
<clipPath id="clip0_79_5643">
<rect width="32" height="32" fill="white"/>
</clipPath>
</defs>
</svg>
