<svg width="32" height="32" viewBox="0 0 32 32" fill="none" xmlns="http://www.w3.org/2000/svg">
<g clip-path="url(#clip0_78_5611)">
<path fill-rule="evenodd" clip-rule="evenodd" d="M13.0614 2.99183C15.537 2.43473 17.3333 4.56297 17.3333 6.66664V13.3333C17.3333 14.0697 17.9302 14.6667 18.6666 14.6667H25.3333C27.4369 14.6667 29.5652 16.4629 29.0081 18.9385C27.6693 24.8881 22.3553 29.3333 16 29.3333C8.63616 29.3333 2.66663 23.3637 2.66663 16C2.66663 9.64462 7.11178 4.33067 13.0614 2.99183Z" fill="#201A13"/>
<path fill-rule="evenodd" clip-rule="evenodd" d="M28.1708 12.1053C27.4721 12.8804 26.4281 13.3333 25.3332 13.3333H22.6665C20.4574 13.3333 18.6665 11.5424 18.6665 9.33327V6.6666C18.6665 5.57172 19.1194 4.52765 19.8945 3.82907C20.6962 3.10639 21.8513 2.76173 23.0545 3.17831C25.7528 4.11251 27.8873 6.247 28.8216 8.94533C29.2381 10.1485 28.8934 11.3035 28.1708 12.1053Z" fill="#201A13"/>
</g>
<defs>
<clipPath id="clip0_78_5611">
<rect width="32" height="32" fill="white"/>
</clipPath>
</defs>
</svg>
