<svg width="32" height="32" viewBox="0 0 32 32" fill="none" xmlns="http://www.w3.org/2000/svg">
<g clip-path="url(#clip0_78_5619)">
<path fill-rule="evenodd" clip-rule="evenodd" d="M2.66663 16C2.66663 8.6362 8.63616 2.66667 16 2.66667C23.3637 2.66667 29.3333 8.6362 29.3333 16C29.3333 23.3637 23.3637 29.3333 16 29.3333C8.63616 29.3333 2.66663 23.3637 2.66663 16ZM20.9428 12.3905C21.4634 12.9112 21.4634 13.7555 20.9428 14.2761L16.0324 19.1865C15.2781 19.9408 14.0552 19.9408 13.3009 19.1865L11.0571 16.9428C10.5365 16.4221 10.5365 15.5779 11.0571 15.0572C11.5779 14.5365 12.4221 14.5365 12.9428 15.0572L14.6666 16.7811L19.0572 12.3905C19.5778 11.8698 20.4221 11.8698 20.9428 12.3905Z" fill="#201A13"/>
</g>
<defs>
<clipPath id="clip0_78_5619">
<rect width="32" height="32" fill="white"/>
</clipPath>
</defs>
</svg>
