<svg width="32" height="32" viewBox="0 0 32 32" fill="none" xmlns="http://www.w3.org/2000/svg">
<g clip-path="url(#clip0_80_8535)">
<path fill-rule="evenodd" clip-rule="evenodd" d="M2.66663 16C2.66663 8.6362 8.63616 2.66667 16 2.66667C23.3637 2.66667 29.3333 8.6362 29.3333 16C29.3333 23.3637 23.3637 29.3333 16 29.3333C8.63616 29.3333 2.66663 23.3637 2.66663 16ZM13.7238 20.9428C13.2031 20.4221 13.2031 19.5779 13.7238 19.0572L16.781 16L13.7238 12.9428C13.2031 12.4221 13.2031 11.5779 13.7238 11.0572C14.2445 10.5365 15.0888 10.5365 15.6094 11.0572L19.2305 14.6783C19.9605 15.4083 19.9605 16.5917 19.2305 17.3217L15.6094 20.9428C15.0888 21.4635 14.2445 21.4635 13.7238 20.9428Z" fill="#201A13"/>
</g>
<defs>
<clipPath id="clip0_80_8535">
<rect width="32" height="32" fill="white"/>
</clipPath>
</defs>
</svg>
