<svg width="32" height="32" viewBox="0 0 32 32" fill="none" xmlns="http://www.w3.org/2000/svg">
<g clip-path="url(#clip0_80_8536)">
<path fill-rule="evenodd" clip-rule="evenodd" d="M2.66663 16C2.66663 8.6362 8.63616 2.66667 16 2.66667C23.3637 2.66667 29.3333 8.6362 29.3333 16C29.3333 23.3637 23.3637 29.3333 16 29.3333C8.63616 29.3333 2.66663 23.3637 2.66663 16ZM18.2761 11.0572C18.7968 11.5779 18.7968 12.4221 18.2761 12.9428L15.2189 16L18.2761 19.0572C18.7968 19.5779 18.7968 20.4221 18.2761 20.9428C17.7554 21.4635 16.9112 21.4635 16.3905 20.9428L12.7405 17.2928C12.0265 16.5788 12.0265 15.4212 12.7405 14.7072L16.3905 11.0572C16.9112 10.5365 17.7554 10.5365 18.2761 11.0572Z" fill="#201A13"/>
</g>
<defs>
<clipPath id="clip0_80_8536">
<rect width="32" height="32" fill="white"/>
</clipPath>
</defs>
</svg>
