<svg width="32" height="32" viewBox="0 0 32 32" fill="none" xmlns="http://www.w3.org/2000/svg">
<g clip-path="url(#clip0_78_5630)">
<path fill-rule="evenodd" clip-rule="evenodd" d="M26.6666 9.24557C26.6666 9.27472 26.6666 9.30399 26.6666 9.33335V22.7544C26.6668 23.9364 26.6668 24.9548 26.5572 25.7704C26.4396 26.6444 26.1746 27.4823 25.495 28.1617C24.8156 28.8413 23.9777 29.1063 23.1037 29.2239C22.2881 29.3335 21.2697 29.3335 20.0877 29.3333H11.9122C10.7302 29.3335 9.71182 29.3335 8.89626 29.2239C8.02225 29.1063 7.18445 28.8413 6.50489 28.1617C5.82534 27.4823 5.56036 26.6444 5.44285 25.7704C5.3332 24.9548 5.33325 23.9364 5.33332 22.7544V9.24556C5.33325 8.06359 5.3332 7.04516 5.44285 6.22961C5.56036 5.3556 5.82534 4.5178 6.50489 3.83824C7.18445 3.15869 8.02225 2.89371 8.89626 2.7762C9.71181 2.66655 10.7302 2.6666 11.9122 2.66667L20 2.66668C20.0293 2.66668 20.0586 2.66667 20.0877 2.66667C21.2697 2.6666 22.2881 2.66655 23.1037 2.7762C23.9777 2.89371 24.8156 3.15869 25.495 3.83824C26.1746 4.5178 26.4396 5.3556 26.5572 6.22961C26.6668 7.04516 26.6668 8.06359 26.6666 9.24557ZM20.9428 16.3905C21.4634 16.9112 21.4634 17.7555 20.9428 18.2761L16.2761 22.9428C15.3872 23.8317 13.9461 23.8317 13.0572 22.9428L11.0572 20.9428C10.5365 20.4221 10.5365 19.5779 11.0572 19.0572C11.5779 18.5365 12.4221 18.5365 12.9428 19.0572L14.6666 20.7811L19.0572 16.3905C19.5778 15.8699 20.4221 15.8699 20.9428 16.3905ZM12 5.33333C12.7364 5.33333 13.3333 5.93029 13.3333 6.66667V8C13.3333 8.73639 13.9302 9.33333 14.6666 9.33333H17.3333C18.0697 9.33333 18.6666 8.73639 18.6666 8V6.66667C18.6666 5.93029 19.2636 5.33333 20 5.33333C20.7364 5.33333 21.3333 5.93029 21.3333 6.66667V8C21.3333 10.2091 19.5425 12 17.3333 12H14.6666C12.4575 12 10.6667 10.2091 10.6667 8V6.66667C10.6667 5.93029 11.2636 5.33333 12 5.33333Z" fill="#201A13"/>
</g>
<defs>
<clipPath id="clip0_78_5630">
<rect width="32" height="32" fill="white"/>
</clipPath>
</defs>
</svg>
