<svg width="32" height="32" viewBox="0 0 32 32" fill="none" xmlns="http://www.w3.org/2000/svg">
<g clip-path="url(#clip0_78_5594)">
<path fill-rule="evenodd" clip-rule="evenodd" d="M2.66669 16C2.66669 8.6362 8.63622 2.66666 16 2.66666C23.3638 2.66666 29.3334 8.6362 29.3334 16C29.3334 23.3637 23.3638 29.3333 16 29.3333C8.63622 29.3333 2.66669 23.3637 2.66669 16ZM21.1095 19.4063C20.701 20.0189 19.8731 20.1845 19.2604 19.7761L15.7935 17.4648C15.0895 16.9955 14.6667 16.2055 14.6667 15.3595V15.3333V9.33333C14.6667 8.59696 15.2636 8 16 8C16.7364 8 17.3334 8.59696 17.3334 9.33333V15.2864L20.7396 17.5572C21.3523 17.9657 21.5179 18.7936 21.1095 19.4063Z" fill="#201A13"/>
</g>
<defs>
<clipPath id="clip0_78_5594">
<rect width="32" height="32" fill="white"/>
</clipPath>
</defs>
</svg>
