<svg width="32" height="32" viewBox="0 0 32 32" fill="none" xmlns="http://www.w3.org/2000/svg">
<g clip-path="url(#clip0_78_5597)">
<path fill-rule="evenodd" clip-rule="evenodd" d="M12.4428 5.07119C13.7604 1.909 18.2402 1.909 19.5578 5.07119C19.815 5.68839 20.5418 5.97383 21.1572 5.68979C24.4299 4.17931 27.821 7.57033 26.3104 10.843C26.0264 11.4584 26.3118 12.1853 26.929 12.4425C30.0912 13.76 30.0912 18.2399 26.929 19.5573C26.3118 19.8145 26.0264 20.5415 26.3104 21.1568C27.821 24.4295 24.4299 27.8205 21.1572 26.31C20.5418 26.026 19.815 26.3115 19.5578 26.9287C18.2402 30.0908 13.7604 30.0908 12.4428 26.9287C12.1856 26.3115 11.4588 26.026 10.8434 26.31C7.57067 27.8205 4.17966 24.4295 5.69013 21.1568C5.97417 20.5415 5.68874 19.8145 5.07154 19.5573C1.90934 18.2399 1.90934 13.76 5.07154 12.4425C5.68874 12.1853 5.97417 11.4584 5.69013 10.843C4.17966 7.57033 7.57067 4.17931 10.8434 5.68979C11.4588 5.97383 12.1856 5.68839 12.4428 5.07119ZM10.6667 16C10.6667 13.0545 13.0545 10.6667 16 10.6667C18.9455 10.6667 21.3334 13.0545 21.3334 16C21.3334 18.9455 18.9455 21.3333 16 21.3333C13.0545 21.3333 10.6667 18.9455 10.6667 16Z" fill="#201A13"/>
<path fill-rule="evenodd" clip-rule="evenodd" d="M16 13.3333C14.5272 13.3333 13.3333 14.5272 13.3333 16C13.3333 17.4728 14.5272 18.6667 16 18.6667C17.4728 18.6667 18.6666 17.4728 18.6666 16C18.6666 14.5272 17.4728 13.3333 16 13.3333Z" fill="#201A13"/>
</g>
<defs>
<clipPath id="clip0_78_5597">
<rect width="32" height="32" fill="white"/>
</clipPath>
</defs>
</svg>
