<svg width="32" height="32" viewBox="0 0 32 32" fill="none" xmlns="http://www.w3.org/2000/svg">
<g clip-path="url(#clip0_78_5636)">
<path d="M27.5591 18.2116C28.0157 17.7552 28.7851 17.7815 29.0344 18.3771C29.2268 18.8367 29.3332 19.3413 29.3332 19.8709V23.6012C29.3332 24.3884 29.3332 25.0675 29.2824 25.6245C29.2287 26.2137 29.1096 26.7969 28.7901 27.3457C28.4417 27.9441 27.944 28.442 27.3455 28.7904C26.7967 29.1099 26.2135 29.2289 25.6243 29.2827C25.0672 29.3335 24.3883 29.3335 23.6011 29.3333H17.7201C17.2817 29.3333 17.0377 28.7329 17.3477 28.4229L27.5591 18.2116Z" fill="#201A13"/>
<path d="M17.2755 6.66667C17.2269 6.02912 17.4193 5.37437 17.9096 4.96384C18.0164 4.87437 18.1215 4.78999 18.2248 4.71113C18.9259 4.1762 19.7057 3.77116 20.6667 3.77116C21.6277 3.77116 22.4076 4.1762 23.1087 4.71113C23.7629 5.21027 24.4829 5.93044 25.3187 6.76627L26.5671 8.0146C27.4029 8.85035 28.1231 9.57044 28.6221 10.2247C29.1571 10.9258 29.5621 11.7056 29.5621 12.6666C29.5621 13.6276 29.1571 14.4075 28.6221 15.1085C28.1231 15.7628 27.4029 16.4828 26.5671 17.3185L18.1232 25.7624C17.8241 26.0615 17.2433 25.7551 17.2755 25.3333C17.3337 24.5668 17.3337 23.7056 17.3336 22.8249V18.2704C17.3335 15.262 17.3335 12.2538 17.3336 9.24555V9.17491C17.3337 8.29431 17.3337 7.4332 17.2755 6.66667Z" fill="#201A13"/>
<path fill-rule="evenodd" clip-rule="evenodd" d="M16 9.24557C15.9998 13.7485 16 18.2515 16 22.7544C16.0002 23.9364 16.0002 24.9548 15.8906 25.7704C15.773 26.6444 15.508 27.4823 14.8284 28.1617C14.149 28.8413 13.3111 29.1063 12.4371 29.2239C11.4118 29.3617 10.3653 29.3333 9.33336 29.3333C8.30141 29.3333 7.25494 29.3617 6.22964 29.2239C5.35562 29.1063 4.51782 28.8413 3.83826 28.1617C3.15872 27.4823 2.89373 26.6444 2.77621 25.7704C2.66657 24.9548 2.66662 23.9364 2.66669 22.7544V9.24557C2.66662 8.06359 2.66657 7.04517 2.77622 6.22963C2.89373 5.3556 3.15872 4.5178 3.83826 3.83825C4.51782 3.15871 5.35562 2.89371 6.22964 2.7762C7.0653 2.66385 8.11396 2.66668 9.33336 2.66668C10.3617 2.66668 11.4165 2.63899 12.4371 2.7762C13.3111 2.89371 14.149 3.15871 14.8284 3.83825C15.508 4.5178 15.773 5.3556 15.8906 6.22963C16.0002 7.04517 16.0002 8.06359 16 9.24557ZM9.33337 24.0133C8.59698 24.0133 8.00004 23.4164 8.00004 22.68V22.6667C8.00004 21.9303 8.59698 21.3333 9.33337 21.3333C10.0697 21.3333 10.6667 21.9303 10.6667 22.6667V22.68C10.6667 23.4164 10.0697 24.0133 9.33337 24.0133Z" fill="#201A13"/>
</g>
<defs>
<clipPath id="clip0_78_5636">
<rect width="32" height="32" fill="white"/>
</clipPath>
</defs>
</svg>
