<svg width="32" height="32" viewBox="0 0 32 32" fill="none" xmlns="http://www.w3.org/2000/svg">
<g clip-path="url(#clip0_78_5637)">
<path d="M26.0533 6.77333C24.7165 5.4459 23.128 4.39886 21.381 3.69366C19.634 2.98845 17.7638 2.63929 15.88 2.66667C12.3438 2.65783 8.9489 4.05411 6.44216 6.54834C3.93542 9.04257 2.52219 12.4304 2.51335 15.9667C2.50451 19.5029 3.90079 22.8978 6.39502 25.4045C8.88925 27.9113 12.2771 29.3245 15.8133 29.3333C16.5753 29.3463 17.3201 29.1058 17.9306 28.6497C18.5412 28.1936 18.983 27.5477 19.1867 26.8133C19.3165 26.283 19.3152 25.729 19.1828 25.1993C19.0503 24.6696 18.7908 24.1802 18.4267 23.7733C18.3425 23.6775 18.2875 23.5595 18.2684 23.4334C18.2492 23.3073 18.2666 23.1784 18.3186 23.0619C18.3705 22.9453 18.4548 22.8462 18.5614 22.7761C18.668 22.7061 18.7925 22.6681 18.92 22.6667H21.12C23.1906 22.6763 25.1882 21.9023 26.7117 20.5C28.2352 19.0977 29.1718 17.171 29.3333 15.1067C29.3829 13.5675 29.1176 12.0344 28.5536 10.6014C27.9896 9.16843 27.1388 7.86578 26.0533 6.77333ZM9.12001 19.6533C8.79264 19.8758 8.40661 19.9962 8.01081 19.9991C7.615 20.0021 7.22721 19.8876 6.89654 19.67C6.56587 19.4524 6.30719 19.1417 6.15326 18.777C5.99932 18.4123 5.95705 18.0102 6.0318 17.6215C6.10655 17.2328 6.29496 16.875 6.57317 16.5935C6.85137 16.3119 7.20687 16.1192 7.59465 16.0398C7.98242 15.9604 8.38504 15.9979 8.75151 16.1475C9.11799 16.297 9.43185 16.552 9.65335 16.88C9.80177 17.0967 9.90577 17.3406 9.95931 17.5977C10.0129 17.8548 10.0149 18.12 9.96529 18.3779C9.91569 18.6358 9.81545 18.8814 9.67036 19.1003C9.52527 19.3192 9.33822 19.5072 9.12001 19.6533ZM11.0667 12.3333C10.877 12.6847 10.5864 12.9712 10.2325 13.156C9.87851 13.3408 9.47733 13.4155 9.08059 13.3703C8.68385 13.3251 8.30971 13.1622 8.00635 12.9026C7.70299 12.643 7.48429 12.2985 7.37841 11.9134C7.27253 11.5284 7.28432 11.1205 7.41227 10.7423C7.54021 10.364 7.77845 10.0327 8.0963 9.79107C8.41416 9.54939 8.79708 9.40838 9.19577 9.38621C9.59446 9.36404 9.99065 9.46172 10.3333 9.66667C10.7755 9.93112 11.0986 10.356 11.2352 10.8528C11.3718 11.3496 11.3115 11.88 11.0667 12.3333ZM14.6667 9.33333C14.2711 9.33333 13.8844 9.21604 13.5555 8.99627C13.2266 8.77651 12.9703 8.46415 12.8189 8.0987C12.6675 7.73325 12.6279 7.33111 12.7051 6.94315C12.7823 6.55519 12.9728 6.19882 13.2525 5.91912C13.5322 5.63941 13.8885 5.44893 14.2765 5.37176C14.6645 5.29459 15.0666 5.3342 15.432 5.48557C15.7975 5.63695 16.1099 5.89329 16.3296 6.22219C16.5494 6.55109 16.6667 6.93777 16.6667 7.33333C16.6667 7.86377 16.456 8.37247 16.0809 8.74755C15.7058 9.12262 15.1971 9.33333 14.6667 9.33333ZM22.3333 10.4C21.9907 10.6049 21.5945 10.7026 21.1958 10.6805C20.7971 10.6583 20.4142 10.5173 20.0963 10.2756C19.7784 10.0339 19.5402 9.70262 19.4123 9.32437C19.2843 8.94612 19.2725 8.53824 19.3784 8.15323C19.4843 7.76822 19.703 7.42371 20.0063 7.16407C20.3097 6.90443 20.6838 6.74154 21.0806 6.69637C21.4773 6.65121 21.8785 6.72583 22.2325 6.91064C22.5864 7.09545 22.877 7.38198 23.0667 7.73333C23.3115 8.18671 23.3718 8.71706 23.2352 9.21385C23.0986 9.71064 22.7755 10.1355 22.3333 10.4Z" fill="#201A13"/>
</g>
<defs>
<clipPath id="clip0_78_5637">
<rect width="32" height="32" fill="white"/>
</clipPath>
</defs>
</svg>
