<svg width="32" height="32" viewBox="0 0 32 32" fill="none" xmlns="http://www.w3.org/2000/svg">
<g clip-path="url(#clip0_78_5610)">
<path d="M2.66663 20.032C2.66663 21.7028 2.75441 23.1365 3.02065 24.3344C3.29025 25.5476 3.76024 26.5991 4.58053 27.4195C5.40083 28.2397 6.4524 28.7097 7.66549 28.9793C8.86345 29.2456 10.2971 29.3333 11.968 29.3333H20.032C21.7028 29.3333 23.1365 29.2456 24.3344 28.9793C25.5476 28.7097 26.5992 28.2397 27.4194 27.4195C28.2397 26.5992 28.7097 25.5476 28.9793 24.3344C29.2456 23.1365 29.3333 21.7028 29.3333 20.032V20C29.3333 18.5272 28.1394 17.3333 26.6666 17.3333H5.33329C3.86053 17.3333 2.66663 18.5272 2.66663 20V20.032Z" fill="#201A13"/>
<path d="M2.66663 11.968C2.66663 10.2972 2.75441 8.86349 3.02065 7.66555C3.29025 6.45244 3.76024 5.40087 4.58053 4.58057C5.40083 3.76028 6.4524 3.29029 7.66549 3.02069C8.86345 2.75445 10.2971 2.66667 11.968 2.66667H12C13.4728 2.66667 14.6666 3.86057 14.6666 5.33333V12C14.6666 13.4728 13.4728 14.6667 12 14.6667H5.33329C3.86053 14.6667 2.66663 13.4728 2.66663 12V11.968Z" fill="#201A13"/>
<path d="M29.3334 11.968C29.3334 10.2972 29.2456 8.86349 28.9794 7.66555C28.7098 6.45244 28.2398 5.40087 27.4195 4.58057C26.5992 3.76028 25.5476 3.29029 24.3344 3.02069C23.1366 2.75445 21.7028 2.66667 20.032 2.66667H20C18.5272 2.66667 17.3334 3.86057 17.3334 5.33333V12C17.3334 13.4728 18.5272 14.6667 20 14.6667H26.6667C28.1395 14.6667 29.3334 13.4728 29.3334 12V11.968Z" fill="#201A13"/>
</g>
<defs>
<clipPath id="clip0_78_5610">
<rect width="32" height="32" fill="white"/>
</clipPath>
</defs>
</svg>
