<svg width="32" height="32" viewBox="0 0 32 32" fill="none" xmlns="http://www.w3.org/2000/svg">
<path fill-rule="evenodd" clip-rule="evenodd" d="M9.33335 2.66667C7.12422 2.66667 5.33335 4.45753 5.33335 6.66667V8H4.00002C3.26365 8 2.66669 8.59696 2.66669 9.33333C2.66669 10.0697 3.26365 10.6667 4.00002 10.6667H5.33335V14.6667H4.00002C3.26365 14.6667 2.66669 15.2636 2.66669 16C2.66669 16.7364 3.26365 17.3333 4.00002 17.3333H5.33335V21.3333H4.00002C3.26365 21.3333 2.66669 21.9303 2.66669 22.6667C2.66669 23.4031 3.26365 24 4.00002 24H5.33335V25.3333C5.33335 27.5425 7.12422 29.3333 9.33335 29.3333H25.3334C27.5426 29.3333 29.3334 27.5425 29.3334 25.3333V6.66667C29.3334 4.45753 27.5426 2.66667 25.3334 2.66667H9.33335ZM12 16C12 13.0545 14.3879 10.6667 17.3334 10.6667C20.2788 10.6667 22.6667 13.0545 22.6667 16C22.6667 18.9455 20.2788 21.3333 17.3334 21.3333C14.3879 21.3333 12 18.9455 12 16ZM13.7831 26.2421C14.298 25.6895 15.22 25.3333 17.3212 25.3333C19.4747 25.3333 20.3879 25.6815 20.8935 26.2337C21.3908 26.7768 22.2343 26.814 22.7774 26.3167C23.3204 25.8195 23.3576 24.976 22.8603 24.4329C21.5359 22.9864 19.5774 22.6667 17.3212 22.6667C15.0796 22.6667 13.1506 23.0091 11.8319 24.4245C11.33 24.9633 11.3598 25.8069 11.8986 26.3089C12.4374 26.8108 13.2811 26.7809 13.7831 26.2421Z" fill="#201A13"/>
<path fill-rule="evenodd" clip-rule="evenodd" d="M17.3334 13.3333C15.8606 13.3333 14.6667 14.5272 14.6667 16C14.6667 17.4728 15.8606 18.6667 17.3334 18.6667C18.8062 18.6667 20 17.4728 20 16C20 14.5272 18.8062 13.3333 17.3334 13.3333Z" fill="#201A13"/>
</svg>
