<svg width="32" height="32" viewBox="0 0 32 32" fill="none" xmlns="http://www.w3.org/2000/svg">
<g clip-path="url(#clip0_252_14810)">
<path fill-rule="evenodd" clip-rule="evenodd" d="M16.6426 2.66652C17.5477 2.66513 18.3509 2.66391 19.0928 2.9712C19.8346 3.27849 20.4018 3.84735 21.0408 4.48832C22.3069 5.75833 23.575 7.02644 24.845 8.29256C25.486 8.93156 26.0549 9.49868 26.3621 10.2405C26.6694 10.9824 26.6682 11.7857 26.6668 12.6908C26.6617 16.0453 26.6666 19.3999 26.6666 22.7545C26.6668 23.9365 26.6668 24.9549 26.5572 25.7704C26.4396 26.6444 26.1746 27.4823 25.495 28.1619C24.8156 28.8413 23.9777 29.1064 23.1037 29.2239C22.2881 29.3335 21.2697 29.3335 20.0877 29.3333H11.9122C10.7302 29.3335 9.71182 29.3335 8.89626 29.2239C8.02225 29.1064 7.18445 28.8413 6.50489 28.1619C5.82534 27.4823 5.56036 26.6444 5.44285 25.7704C5.3332 24.9549 5.33325 23.9365 5.33332 22.7545L5.33333 9.33339C5.33333 9.30403 5.33332 9.27476 5.33332 9.24561C5.33325 8.06363 5.3332 7.04521 5.44285 6.22965C5.56036 5.35564 5.82534 4.51784 6.5049 3.83829C7.18445 3.15873 8.02225 2.89375 8.89626 2.77624C9.71181 2.66659 10.7302 2.66664 11.9122 2.66671C13.489 2.6668 15.0658 2.66895 16.6426 2.66652Z" fill="#323232"/>
</g>
<defs>
<clipPath id="clip0_252_14810">
<rect width="32" height="32" fill="white"/>
</clipPath>
</defs>
</svg>
