<svg width="32" height="32" viewBox="0 0 32 32" fill="none" xmlns="http://www.w3.org/2000/svg">
<path fill-rule="evenodd" clip-rule="evenodd" d="M16 28C16 27.2636 16.5969 26.6667 17.3333 26.6667H28C28.7364 26.6667 29.3333 27.2636 29.3333 28C29.3333 28.7364 28.7364 29.3333 28 29.3333H17.3333C16.5969 29.3333 16 28.7364 16 28Z" fill="#201A13"/>
<path fill-rule="evenodd" clip-rule="evenodd" d="M27.6982 10.7999C29.8446 8.64508 29.7534 5.81536 28.1507 4.08244C27.3691 3.23747 26.2568 2.69773 24.997 2.66797C23.7324 2.63811 22.4223 3.12169 21.2134 4.13313C21.1824 4.159 21.1527 4.18625 21.1243 4.21481L3.83263 21.5755C3.08593 22.3251 2.66669 23.3401 2.66669 24.3983V26.6563C2.66669 28.1249 3.85598 29.3333 5.33846 29.3333H7.57689C8.64051 29.3333 9.66034 28.9097 10.4109 28.1561L27.6982 10.7999ZM22.9428 7.72393C22.4222 7.20324 21.5779 7.20324 21.0572 7.72393C20.5366 8.24464 20.5366 9.08885 21.0572 9.60956L22.3906 10.9429C22.9112 11.4636 23.7555 11.4636 24.2762 10.9429C24.7968 10.4222 24.7968 9.57797 24.2762 9.05727L22.9428 7.72393Z" fill="#201A13"/>
</svg>
