<svg width="32" height="32" viewBox="0 0 32 32" fill="none" xmlns="http://www.w3.org/2000/svg">
<g clip-path="url(#clip0_78_5601)">
<path fill-rule="evenodd" clip-rule="evenodd" d="M2.66669 16C2.66669 8.6362 8.63622 2.66666 16 2.66666C23.3638 2.66666 29.3334 8.6362 29.3334 16C29.3334 23.3637 23.3638 29.3333 16 29.3333C8.63622 29.3333 2.66669 23.3637 2.66669 16ZM12.0001 12C12.7365 12 13.3335 12.597 13.3335 13.3333V13.3483C13.3335 14.0847 12.7365 14.6816 12.0001 14.6816C11.2637 14.6816 10.6668 14.0847 10.6668 13.3483V13.3333C10.6668 12.597 11.2637 12 12.0001 12ZM9.86599 17.6005C10.4548 17.1583 11.2906 17.2771 11.7328 17.8659C12.7081 19.1643 14.2566 20 16.0006 20C17.7446 20 19.2931 19.1643 20.2683 17.8659C20.7106 17.2771 21.5464 17.1583 22.1352 17.6005C22.724 18.0428 22.8427 18.8787 22.4006 19.4675C20.9432 21.4076 18.6188 22.6667 16.0006 22.6667C13.3824 22.6667 11.0579 21.4076 9.60067 19.4675C9.15842 18.8787 9.27721 18.0428 9.86599 17.6005ZM21.3335 13.3333C21.3335 12.597 20.7364 12 20.0002 12C19.2638 12 18.6668 12.597 18.6668 13.3333V13.3483C18.6668 14.0847 19.2638 14.6816 20.0002 14.6816C20.7364 14.6816 21.3335 14.0847 21.3335 13.3483V13.3333Z" fill="#201A13"/>
</g>
<defs>
<clipPath id="clip0_78_5601">
<rect width="32" height="32" fill="white"/>
</clipPath>
</defs>
</svg>
