<svg width="32" height="32" viewBox="0 0 32 32" fill="none" xmlns="http://www.w3.org/2000/svg">
<g clip-path="url(#clip0_78_5629)">
<path fill-rule="evenodd" clip-rule="evenodd" d="M10.6667 16C10.6667 13.0545 13.0545 10.6667 16 10.6667C18.9455 10.6667 21.3333 13.0545 21.3333 16C21.3333 18.9455 18.9455 21.3333 16 21.3333C13.0545 21.3333 10.6667 18.9455 10.6667 16ZM8.32313 8.45754C12.4887 4.29194 19.2425 4.29194 23.408 8.45754L26.2985 11.348C27.1344 12.1837 27.8545 12.9038 28.3537 13.558C28.8887 14.2592 29.2937 15.0389 29.2937 16C29.2937 16.9611 28.8887 17.7408 28.3537 18.442C27.8545 19.0961 27.1344 19.8163 26.2985 20.652L23.408 23.5425C19.2425 27.708 12.4887 27.708 8.32313 23.5425L5.43263 20.652C4.59679 19.8163 3.87662 19.0961 3.37747 18.442C2.84254 17.7408 2.4375 16.9611 2.4375 16C2.4375 15.0389 2.84254 14.2592 3.37747 13.558C3.87662 12.9038 4.59679 12.1837 5.43263 11.348C5.45326 11.3274 5.47394 11.3067 5.4947 11.286L8.32313 8.45754Z" fill="#201A13"/>
<path fill-rule="evenodd" clip-rule="evenodd" d="M16 13.3333C14.5272 13.3333 13.3333 14.5272 13.3333 16C13.3333 17.4728 14.5272 18.6667 16 18.6667C17.4728 18.6667 18.6666 17.4728 18.6666 16C18.6666 14.5272 17.4728 13.3333 16 13.3333Z" fill="#201A13"/>
</g>
<defs>
<clipPath id="clip0_78_5629">
<rect width="32" height="32" fill="white"/>
</clipPath>
</defs>
</svg>
