<svg width="32" height="32" viewBox="0 0 32 32" fill="none" xmlns="http://www.w3.org/2000/svg">
<g clip-path="url(#clip0_78_5628)">
<path fill-rule="evenodd" clip-rule="evenodd" d="M11.4477 6.28844C15.3776 4.50125 20.1724 5.22169 23.4081 8.45747L27.4105 12.4599C27.4508 12.5001 27.4905 12.5398 27.53 12.5791C28.0728 13.1206 28.5416 13.5883 28.8251 14.1211C29.45 15.2957 29.45 16.7043 28.8251 17.8788C28.5416 18.4116 28.0728 18.8793 27.53 19.4207C27.4905 19.4601 27.4508 19.4999 27.4105 19.54L27.3412 19.6095C26.8205 20.1301 25.9763 20.1301 25.4556 19.6095C24.9348 19.0887 24.9348 18.2445 25.4556 17.7239L25.5249 17.6544C26.2561 16.9232 26.4009 16.7577 26.4709 16.6263C26.6792 16.2347 26.6792 15.7652 26.4709 15.3736C26.4009 15.2421 26.2561 15.0767 25.5249 14.3455L21.5225 10.3431C19.0983 7.91885 15.5027 7.37388 12.5516 8.71589C11.8813 9.02072 11.0908 8.72444 10.7859 8.05412C10.4811 7.3838 10.7774 6.59328 11.4477 6.28844Z" fill="#201A13"/>
<path fill-rule="evenodd" clip-rule="evenodd" d="M3.17605 6.02132C3.62814 5.44005 4.46585 5.33535 5.04711 5.78744L29.0471 24.4541C29.6284 24.9061 29.7331 25.7439 29.2809 26.3252C28.8289 26.9064 27.9912 27.0112 27.4099 26.5591L23.462 23.4885L23.408 23.5425C19.2425 27.7081 12.4887 27.7081 8.32313 23.5425L5.43263 20.652C4.59681 19.8163 3.87662 19.0961 3.37747 18.442C2.84254 17.7408 2.4375 16.9611 2.4375 16C2.4375 15.0389 2.84254 14.2592 3.37747 13.5581C3.87662 12.9039 4.59679 12.1838 5.43263 11.348L6.49151 10.2892L3.40994 7.89237C2.82867 7.44028 2.72395 6.60258 3.17605 6.02132ZM17.0088 18.4693L19.2607 20.2208C18.3592 20.9183 17.228 21.3333 16 21.3333C13.0545 21.3333 10.6667 18.9456 10.6667 16C10.6667 15.2459 10.8232 14.5283 11.1056 13.8779L13.3588 15.6304C13.342 15.7512 13.3333 15.8747 13.3333 16C13.3333 17.4728 14.5272 18.6667 16 18.6667C16.3571 18.6667 16.6976 18.5965 17.0088 18.4693Z" fill="#201A13"/>
</g>
<defs>
<clipPath id="clip0_78_5628">
<rect width="32" height="32" fill="white"/>
</clipPath>
</defs>
</svg>
