<svg width="32" height="32" viewBox="0 0 32 32" fill="none" xmlns="http://www.w3.org/2000/svg">
<g clip-path="url(#clip0_78_5598)">
<path fill-rule="evenodd" clip-rule="evenodd" d="M2.66669 6.66666C2.66669 4.45753 4.45755 2.66666 6.66669 2.66666H25.3334C27.5426 2.66666 29.3334 4.45753 29.3334 6.66666V8.22876C29.3334 9.28962 28.9119 10.307 28.1618 11.0572L20.3906 18.8284C20.1406 19.0785 20 19.4176 20 19.7712V22.8955C20 23.9563 19.5786 24.9737 18.8284 25.7239L15.8924 28.6599C14.456 30.0963 12 29.0789 12 27.0476V19.7712C12 19.4176 11.8595 19.0785 11.6095 18.8284L3.83826 11.0572C3.08811 10.307 2.66669 9.28962 2.66669 8.22876V6.66666Z" fill="#201A13"/>
</g>
<defs>
<clipPath id="clip0_78_5598">
<rect width="32" height="32" fill="white"/>
</clipPath>
</defs>
</svg>
