<svg width="32" height="32" viewBox="0 0 32 32" fill="none" xmlns="http://www.w3.org/2000/svg">
<g clip-path="url(#clip0_137_5114)">
<path fill-rule="evenodd" clip-rule="evenodd" d="M17.3333 14.6667C17.3333 13.9303 16.7364 13.3333 16 13.3333C15.2636 13.3333 14.6666 13.9303 14.6666 14.6667V16.6667H12.6666C11.9303 16.6667 11.3333 17.2636 11.3333 18C11.3333 18.7364 11.9303 19.3333 12.6666 19.3333H14.6666V21.3333C14.6666 22.0697 15.2636 22.6667 16 22.6667C16.7364 22.6667 17.3333 22.0697 17.3333 21.3333V19.3333H19.3333C20.0697 19.3333 20.6666 18.7364 20.6666 18C20.6666 17.2636 20.0697 16.6667 19.3333 16.6667H17.3333V14.6667ZM7.22608 4.31821C8.30687 4.07803 9.59405 4 11.0826 4H13.2395C14.5769 4 15.8258 4.6684 16.5677 5.7812L17.651 7.40627C17.8984 7.77717 18.3146 8 18.7605 8H25.501C27.631 8 29.3574 9.68153 29.3372 11.8469C29.3129 14.4256 29.3333 17.0052 29.3333 19.584C29.3333 21.0725 29.2553 22.3597 29.015 23.4405C28.7716 24.5365 28.3438 25.5001 27.5886 26.2553C26.8334 27.0105 25.8698 27.4383 24.7738 27.6817C23.693 27.922 22.4058 28 20.9173 28H11.0826C9.59405 28 8.30687 27.922 7.22608 27.6817C6.13015 27.4383 5.16647 27.0105 4.41127 26.2553C3.65608 25.5001 3.2284 24.5365 2.98484 23.4405C2.74465 22.3597 2.66663 21.0725 2.66663 19.584V12.416C2.66663 10.9274 2.74465 9.64024 2.98484 8.55945C3.2284 7.46352 3.65608 6.49984 4.41127 5.74464C5.16647 4.98945 6.13015 4.56177 7.22608 4.31821Z" fill="#323232"/>
</g>
<defs>
<clipPath id="clip0_137_5114">
<rect width="32" height="32" fill="white"/>
</clipPath>
</defs>
</svg>
