<svg width="32" height="32" viewBox="0 0 32 32" fill="none" xmlns="http://www.w3.org/2000/svg">
<g clip-path="url(#clip0_78_5602)">
<path fill-rule="evenodd" clip-rule="evenodd" d="M7.22608 4.31821C8.30687 4.07803 9.59405 4 11.0826 4H13.2395C14.5769 4 15.8258 4.6684 16.5677 5.7812L17.651 7.40627C17.8984 7.77717 18.3146 8 18.7605 8H25.501C27.631 8 29.3574 9.68153 29.3372 11.8469C29.3129 14.4256 29.3333 17.0052 29.3333 19.584C29.3333 21.0725 29.2553 22.3597 29.015 23.4405C28.7716 24.5365 28.3438 25.5001 27.5886 26.2553C26.8334 27.0105 25.8698 27.4383 24.7738 27.6817C23.693 27.922 22.4058 28 20.9173 28H11.0826C9.59405 28 8.30687 27.922 7.22608 27.6817C6.13015 27.4383 5.16647 27.0105 4.41127 26.2553C3.65608 25.5001 3.2284 24.5365 2.98484 23.4405C2.74465 22.3597 2.66663 21.0725 2.66663 19.584V12.416C2.66663 10.9274 2.74465 9.64024 2.98484 8.55945C3.2284 7.46352 3.65608 6.49984 4.41127 5.74464C5.16647 4.98945 6.13015 4.56177 7.22608 4.31821ZM22.2761 13.7239C22.7968 14.2445 22.7968 15.0888 22.2761 15.6095L15.698 22.1876C15.1284 22.7572 14.2049 22.7572 13.6353 22.1876L11.0571 19.6095C10.5365 19.0888 10.5365 18.2445 11.0571 17.7239C11.5779 17.2032 12.4221 17.2032 12.9428 17.7239L14.6666 19.4477L20.3905 13.7239C20.9112 13.2032 21.7554 13.2032 22.2761 13.7239Z" fill="#201A13"/>
</g>
<defs>
<clipPath id="clip0_78_5602">
<rect width="32" height="32" fill="white"/>
</clipPath>
</defs>
</svg>
