<svg width="32" height="32" viewBox="0 0 32 32" fill="none" xmlns="http://www.w3.org/2000/svg">
<g clip-path="url(#clip0_78_5603)">
<path fill-rule="evenodd" clip-rule="evenodd" d="M7.14835 4.6266C8.04768 4.21441 9.01712 4 9.99999 4C10.9829 4 11.9523 4.21441 12.8516 4.6266C13.7505 5.03857 14.558 5.63815 15.2318 6.38384C15.6429 6.83869 16.357 6.83869 16.7681 6.38384C18.1305 4.87635 20.009 4.00001 22 4.00001C23.9909 4.00001 25.8694 4.87635 27.2318 6.38384C28.5902 7.88687 29.3333 9.899 29.3333 11.9723C29.3333 14.0456 28.5902 16.0577 27.2318 17.5607L18.9676 26.7049C17.3794 28.4623 14.6205 28.4623 13.0323 26.7049L4.76813 17.5607C4.09444 16.8153 3.56628 15.9375 3.20799 14.9804C2.84971 14.0233 2.66663 13.0015 2.66663 11.9723C2.66663 10.943 2.84971 9.92125 3.20799 8.9642C3.56628 8.00708 4.09444 7.12925 4.76813 6.38384C5.44205 5.63815 6.24951 5.03857 7.14835 4.6266Z" fill="#201A13"/>
</g>
<defs>
<clipPath id="clip0_78_5603">
<rect width="32" height="32" fill="white"/>
</clipPath>
</defs>
</svg>
