<svg width="32" height="32" viewBox="0 0 32 32" fill="none" xmlns="http://www.w3.org/2000/svg">
<g clip-path="url(#clip0_153_5235)">
<path fill-rule="evenodd" clip-rule="evenodd" d="M18.6575 4.57824C17.1419 3.23108 14.8582 3.23108 13.3426 4.57824L3.11422 13.6701C2.56384 14.1593 2.51426 15.0021 3.00349 15.5525C3.49272 16.1028 4.33548 16.1524 4.88585 15.6632L5.33337 15.2655V22.7544C5.3333 23.9364 5.33325 24.9548 5.44289 25.7704C5.5604 26.6444 5.8254 27.4823 6.50494 28.1617C7.18449 28.8413 8.02229 29.1063 8.89632 29.2239C9.71186 29.3335 10.7303 29.3333 11.9123 29.3333H20.0878C21.2698 29.3333 22.2882 29.3335 23.1038 29.2239C23.9778 29.1063 24.8156 28.8413 25.4951 28.1617C26.1747 27.4823 26.4396 26.6444 26.5572 25.7704C26.6668 24.9548 26.6668 23.9364 26.6667 22.7545V15.2655L27.1142 15.6632C27.6646 16.1524 28.5074 16.1028 28.9966 15.5525C29.4858 15.0021 29.4363 14.1593 28.8859 13.6701L18.6575 4.57824ZM16 21.3333C15.2636 21.3333 14.6667 21.9303 14.6667 22.6667V25.3333C14.6667 26.0697 14.0698 26.6667 13.3334 26.6667C12.597 26.6667 12 26.0697 12 25.3333V22.6667C12 20.4575 13.7908 18.6667 16 18.6667C18.2092 18.6667 20 20.4575 20 22.6667V25.3333C20 26.0697 19.4031 26.6667 18.6667 26.6667C17.9303 26.6667 17.3334 26.0697 17.3334 25.3333V22.6667C17.3334 21.9303 16.7364 21.3333 16 21.3333Z" fill="#201A13"/>
</g>
<defs>
<clipPath id="clip0_153_5235">
<rect width="32" height="32" fill="white"/>
</clipPath>
</defs>
</svg>
