<svg width="32" height="32" viewBox="0 0 32 32" fill="none" xmlns="http://www.w3.org/2000/svg">
<g clip-path="url(#clip0_263_13401)">
<path d="M25.2121 25.2121C28.153 25.2121 30.5455 22.8195 30.5455 19.8788C30.5455 16.9379 28.1529 14.5455 25.2121 14.5455H23.2728H3.87872C3.44297 14.5455 3.03016 14.7408 2.75378 15.0778C2.47753 15.4148 2.36697 15.858 2.45241 16.2852L5.0136 29.0909H2.90903C2.10572 29.0909 1.45447 29.7422 1.45447 30.5455C1.45447 31.3488 2.10572 32.0001 2.90903 32.0001H6.78785H20.3636H24.2424C25.0458 32.0001 25.697 31.3488 25.697 30.5455C25.697 29.7422 25.0458 29.0909 24.2424 29.0909H22.1379L22.9136 25.2121H25.2121ZM24.4651 17.4545H25.2121C26.5488 17.4545 27.6363 18.542 27.6363 19.8788C27.6363 21.2155 26.5488 22.303 25.2121 22.303H23.4954L24.4651 17.4545Z" fill="black"/>
<path d="M11.2102 6.24395C10.497 5.53095 10.1818 5.18126 10.1818 4.36364C10.1817 3.54601 10.4971 3.19632 11.2104 2.48307C11.7785 1.91519 11.7787 0.99419 11.2108 0.426127C10.6427 -0.141937 9.72177 -0.142125 9.15365 0.425814C8.35977 1.2195 7.27246 2.30644 7.27271 4.36357C7.27239 6.42058 8.35946 7.50745 9.15315 8.30102C9.86646 9.01421 10.1818 9.36408 10.1818 10.1818C10.1818 10.9851 10.833 11.6363 11.6363 11.6363C12.4397 11.6363 13.0909 10.9851 13.0909 10.1818C13.0909 8.12458 12.0039 7.03758 11.2102 6.24395Z" fill="black"/>
<path d="M17.9981 6.24395C17.2849 5.53095 16.9696 5.18126 16.9697 4.36364C16.9696 3.54601 17.2849 3.19632 17.9982 2.48307C18.5664 1.91519 18.5665 0.99419 17.9986 0.426127C17.4307 -0.141937 16.5097 -0.142125 15.9415 0.425814C15.1476 1.2195 14.0603 2.30644 14.0605 4.36357C14.0602 6.42058 15.1473 7.50745 15.941 8.30102C16.6543 9.01421 16.9696 9.36408 16.9696 10.1818C16.9696 10.9851 17.6209 11.6363 18.4242 11.6363C19.2275 11.6363 19.8787 10.9851 19.8787 10.1818C19.8787 8.12458 18.7917 7.03758 17.9981 6.24395Z" fill="black"/>
</g>
<defs>
<clipPath id="clip0_263_13401">
<rect width="32" height="32" fill="white"/>
</clipPath>
</defs>
</svg>
