<svg width="32" height="32" viewBox="0 0 32 32" fill="none" xmlns="http://www.w3.org/2000/svg">
<path d="M14 26.5333V5.46667C14 3.46667 13.1466 2.66667 11.0266 2.66667H5.63996C3.51996 2.66667 2.66663 3.46667 2.66663 5.46667V26.5333C2.66663 28.5333 3.51996 29.3333 5.63996 29.3333H11.0266C13.1466 29.3333 14 28.5333 14 26.5333Z" fill="#201A13"/>
<path d="M29.3333 17.2V5.46667C29.3333 3.46667 28.48 2.66667 26.36 2.66667H20.9733C18.8533 2.66667 18 3.46667 18 5.46667V17.2C18 19.2 18.8533 20 20.9733 20H26.36C28.48 20 29.3333 19.2 29.3333 17.2Z" fill="#201A13"/>
</svg>
