<svg width="32" height="32" viewBox="0 0 32 32" fill="none" xmlns="http://www.w3.org/2000/svg">
<g clip-path="url(#clip0_78_5599)">
<path fill-rule="evenodd" clip-rule="evenodd" d="M28.9428 3.05718C29.4635 3.57789 29.4635 4.4221 28.9428 4.94281L26.5523 7.33333L27.6095 8.39052C28.8666 9.6476 28.8666 11.6857 27.6095 12.9428L26.2762 14.2761C25.0191 15.5332 22.981 15.5332 21.7239 14.2761L20.6667 13.2189L18.3319 15.5537C19.3808 16.9871 20 18.7545 20 20.6667C20 25.4531 16.1199 29.3333 11.3334 29.3333C6.54689 29.3333 2.66669 25.4532 2.66669 20.6667C2.66669 15.8801 6.54689 12 11.3334 12C13.2455 12 15.013 12.6192 16.4463 13.6681L27.0572 3.05718C27.5779 2.53649 28.4222 2.53649 28.9428 3.05718Z" fill="#201A13"/>
</g>
<defs>
<clipPath id="clip0_78_5599">
<rect width="32" height="32" fill="white"/>
</clipPath>
</defs>
</svg>
