<svg width="32" height="32" viewBox="0 0 32 32" fill="none" xmlns="http://www.w3.org/2000/svg">
<path fill-rule="evenodd" clip-rule="evenodd" d="M6.93319 27.1937C6.83243 27.5669 6.72834 27.9523 6.61965 28.3508C6.42589 29.0612 5.6929 29.4801 4.98246 29.2864C4.27203 29.0925 3.85319 28.3596 4.04695 27.6492C4.15615 27.2488 4.26213 26.8547 4.36642 26.4668C5.19122 23.3995 5.91007 20.726 7.27694 18.4747C8.87969 15.8348 11.3067 13.8444 15.4871 12.1025C16.1668 11.8193 16.9475 12.1408 17.2307 12.8205C17.5139 13.5003 17.1925 14.2808 16.5128 14.5641C12.6932 16.1556 10.7869 17.8317 9.55638 19.8587C8.39963 21.7639 7.78481 24.0405 6.93319 27.1937Z" fill="#201A13"/>
<path d="M26.3835 3.51999C17.9833 1.50745 10.8727 2.88927 6.65268 6.71045C2.58245 10.396 1.5168 16.0545 4.21205 22.1676C4.7206 20.6072 5.31915 19.1301 6.13717 17.7828C7.92611 14.8363 10.6135 12.6888 14.9743 10.8718C16.3337 10.3053 17.8949 10.9482 18.4615 12.3077C19.0279 13.6672 18.3851 15.2284 17.0256 15.7948C13.3868 17.3111 11.7406 18.8301 10.6961 20.5507C9.92273 21.8243 9.40877 23.2987 8.83871 25.2941C15.9132 25.0307 20.9177 23.4364 24.2289 20.3912C27.6595 17.2363 29.0244 12.7551 29.2851 7.3908C29.3736 5.57232 28.1565 3.9448 26.3835 3.51999Z" fill="#201A13"/>
</svg>
