<svg width="32" height="32" viewBox="0 0 32 32" fill="none" xmlns="http://www.w3.org/2000/svg">
<path fill-rule="evenodd" clip-rule="evenodd" d="M14.6666 5.33333C13.9302 5.33333 13.3333 5.93029 13.3333 6.66667V10.6667H20.0877C21.2697 10.6666 22.2881 10.6665 23.1037 10.7762C23.9777 10.8937 24.8156 11.1587 25.495 11.8382C26.1746 12.5178 26.4396 13.3556 26.5572 14.2296C26.6668 15.0452 26.6668 16.0636 26.6666 17.2456V22.7544C26.6668 23.9364 26.6668 24.9548 26.5572 25.7704C26.4396 26.6444 26.1746 27.4823 25.495 28.1617C24.8156 28.8413 23.9777 29.1063 23.1037 29.2239C22.2881 29.3335 21.2697 29.3335 20.0877 29.3333H11.9122C10.7302 29.3335 9.71181 29.3335 8.89628 29.2239C8.02225 29.1063 7.18445 28.8413 6.5049 28.1617C5.82534 27.4823 5.56036 26.6444 5.44285 25.7704C5.3332 24.9548 5.33325 23.9364 5.33332 22.7544V17.2456C5.33325 16.0636 5.3332 15.0452 5.44285 14.2296C5.56036 13.3556 5.82534 12.5178 6.5049 11.8382C7.18445 11.1587 8.02225 10.8937 8.89628 10.7762C9.40937 10.7072 10.0028 10.6817 10.6667 10.6722V6.66667C10.6667 4.45753 12.4575 2.66667 14.6666 2.66667H17.4166C19.5797 2.66667 21.3333 4.42021 21.3333 6.58333V6.66667C21.3333 7.40304 20.7364 8 20 8C19.2636 8 18.6666 7.40304 18.6666 6.66667V6.58333C18.6666 5.89297 18.107 5.33333 17.4166 5.33333H14.6666ZM16 17.3333C14.5272 17.3333 13.3333 18.5272 13.3333 20C13.3333 21.4728 14.5272 22.6667 16 22.6667C17.4728 22.6667 18.6666 21.4728 18.6666 20C18.6666 18.5272 17.4728 17.3333 16 17.3333Z" fill="#201A13"/>
</svg>
