<svg width="32" height="32" viewBox="0 0 32 32" fill="none" xmlns="http://www.w3.org/2000/svg">
<path fill-rule="evenodd" clip-rule="evenodd" d="M10.6667 6.66667V10.6722C10.0028 10.6817 9.40937 10.7072 8.89628 10.7762C8.02225 10.8937 7.18445 11.1587 6.5049 11.8382C5.82534 12.5178 5.56036 13.3556 5.44285 14.2296C5.3332 15.0452 5.33325 16.0636 5.33332 17.2456V22.7544C5.33325 23.9364 5.3332 24.9548 5.44285 25.7704C5.56036 26.6444 5.82534 27.4823 6.5049 28.1617C7.18445 28.8413 8.02225 29.1063 8.89628 29.2239C9.71181 29.3335 10.7302 29.3335 11.9122 29.3333H20.0878C21.2697 29.3335 22.2881 29.3335 23.1037 29.2239C23.9777 29.1063 24.8156 28.8413 25.495 28.1617C26.1746 27.4823 26.4396 26.6444 26.5572 25.7704C26.6668 24.9548 26.6668 23.9364 26.6666 22.7544V17.2456C26.6668 16.0636 26.6668 15.0452 26.5572 14.2296C26.4396 13.3556 26.1746 12.5178 25.495 11.8382C24.8156 11.1587 23.9777 10.8937 23.1037 10.7762C22.5907 10.7072 21.9972 10.6817 21.3333 10.6722V6.66667C21.3333 4.45753 19.5425 2.66667 17.3333 2.66667H14.6666C12.4575 2.66667 10.6667 4.45753 10.6667 6.66667ZM14.6666 5.33333C13.9302 5.33333 13.3333 5.93029 13.3333 6.66667V10.6667H18.6666V6.66667C18.6666 5.93029 18.0697 5.33333 17.3333 5.33333H14.6666ZM16 17.3333C14.5272 17.3333 13.3333 18.5272 13.3333 20C13.3333 21.4728 14.5272 22.6667 16 22.6667C17.4728 22.6667 18.6666 21.4728 18.6666 20C18.6666 18.5272 17.4728 17.3333 16 17.3333Z" fill="#201A13"/>
</svg>
