<svg width="32" height="32" viewBox="0 0 32 32" fill="none" xmlns="http://www.w3.org/2000/svg">
<g clip-path="url(#clip0_78_5614)">
<path fill-rule="evenodd" clip-rule="evenodd" d="M20 16C20 16.7364 20.5969 17.3333 21.3333 17.3333C22.0697 17.3333 22.6666 16.7364 22.6666 16V14.6667L22.6668 11.3334C22.6668 10.2284 21.7708 9.33333 20.6666 9.33333H17.3333H16C15.2636 9.33333 14.6666 9.93029 14.6666 10.6667C14.6666 11.4031 15.2636 12 16 12H17.3333H20.0001L20 14.6667V16ZM12 16C12 15.2636 11.403 14.6667 10.6666 14.6667C9.93025 14.6667 9.33329 15.2636 9.33329 16V17.3333V20.6667C9.33329 21.7712 10.2287 22.6667 11.3333 22.6667H14.6666H16C16.7364 22.6667 17.3333 22.0697 17.3333 21.3333C17.3333 20.5969 16.7364 20 16 20H14.6666H12V17.3333V16ZM2.66663 16C2.66663 8.6362 8.63616 2.66667 16 2.66667C23.3637 2.66667 29.3333 8.6362 29.3333 16C29.3333 23.3637 23.3637 29.3333 16 29.3333C8.63616 29.3333 2.66663 23.3637 2.66663 16Z" fill="#201A13"/>
</g>
<defs>
<clipPath id="clip0_78_5614">
<rect width="32" height="32" fill="white"/>
</clipPath>
</defs>
</svg>
