<svg width="32" height="32" viewBox="0 0 32 32" fill="none" xmlns="http://www.w3.org/2000/svg">
<g clip-path="url(#clip0_357_27536)">
<path d="M26.6667 23.3333C27.7712 23.3333 28.6667 24.2288 28.6667 25.3333C28.6667 26.3729 27.8735 27.2273 26.8593 27.3242L26.6667 27.3333H5.33337C4.2288 27.3333 3.33337 26.4379 3.33337 25.3333C3.33337 24.2938 4.12655 23.4394 5.14076 23.3425L5.33337 23.3333H26.6667ZM26.6667 14C27.7712 14 28.6667 14.8955 28.6667 16C28.6667 17.1045 27.7712 18 26.6667 18H5.33337C4.2288 18 3.33337 17.1045 3.33337 16C3.33337 14.8955 4.2288 14 5.33337 14H26.6667ZM26.6667 4.66666C27.7712 4.66666 28.6667 5.56209 28.6667 6.66666C28.6667 7.77124 27.7712 8.66666 26.6667 8.66666H5.33337C4.2288 8.66666 3.33337 7.77124 3.33337 6.66666C3.33337 5.56209 4.2288 4.66666 5.33337 4.66666H26.6667Z" fill="#020201"/>
</g>
<defs>
<clipPath id="clip0_357_27536">
<rect width="32" height="32" fill="white"/>
</clipPath>
</defs>
</svg>
