<svg width="32" height="32" viewBox="0 0 32 32" fill="none" xmlns="http://www.w3.org/2000/svg">
<g clip-path="url(#clip0_78_5615)">
<path fill-rule="evenodd" clip-rule="evenodd" d="M18.6666 9.33333C18.6666 8.59696 18.0697 8 17.3333 8C16.5969 8 16 8.59696 16 9.33333V10.6667V14C16 15.1045 16.8954 16 18 16H21.3333H22.6666C23.403 16 24 15.4031 24 14.6667C24 13.9303 23.403 13.3333 22.6666 13.3333H21.3333H18.6666V10.6667V9.33333ZM7.99996 17.3333C7.99996 18.0697 8.59692 18.6667 9.33329 18.6667H10.6666H13.3332L13.3333 21.3333L13.3333 22.6667C13.3333 23.4031 13.9302 24 14.6666 24C15.403 24 16 23.4031 16 22.6667V21.3333L15.9998 18C15.9998 16.8959 15.1049 16 14 16H10.6666H9.33329C8.59691 16 7.99996 16.5969 7.99996 17.3333ZM2.66663 16C2.66663 8.6362 8.63616 2.66667 16 2.66667C23.3637 2.66667 29.3333 8.6362 29.3333 16C29.3333 23.3637 23.3637 29.3333 16 29.3333C8.63616 29.3333 2.66663 23.3637 2.66663 16Z" fill="#201A13"/>
</g>
<defs>
<clipPath id="clip0_78_5615">
<rect width="32" height="32" fill="white"/>
</clipPath>
</defs>
</svg>
