<svg width="32" height="32" viewBox="0 0 32 32" fill="none" xmlns="http://www.w3.org/2000/svg">
<g clip-path="url(#clip0_136_6496)">
<path fill-rule="evenodd" clip-rule="evenodd" d="M14.6732 10.6733C14.6732 11.4097 15.2701 12.0067 16.0065 12.0067C16.7429 12.0067 17.3398 11.4097 17.3398 10.6733V10.66C17.3398 9.92361 16.7429 9.32667 16.0065 9.32667C15.2701 9.32667 14.6732 9.92361 14.6732 10.66V10.6733ZM16.0065 17.34C15.2701 17.34 14.6732 16.7431 14.6732 16.0067V15.9933C14.6732 15.2569 15.2701 14.66 16.0065 14.66C16.7429 14.66 17.3398 15.2569 17.3398 15.9933V16.0067C17.3398 16.7431 16.7429 17.34 16.0065 17.34ZM16.0065 22.6733C15.2701 22.6733 14.6732 22.0764 14.6732 21.34V21.3267C14.6732 20.5903 15.2701 19.9933 16.0065 19.9933C16.7429 19.9933 17.3398 20.5903 17.3398 21.3267V21.34C17.3398 22.0764 16.7429 22.6733 16.0065 22.6733ZM2.66663 16C2.66663 8.6362 8.63616 2.66667 16 2.66667C23.3637 2.66667 29.3333 8.6362 29.3333 16C29.3333 23.3637 23.3637 29.3333 16 29.3333C8.63616 29.3333 2.66663 23.3637 2.66663 16Z" fill="#201A13"/>
</g>
<defs>
<clipPath id="clip0_136_6496">
<rect width="32" height="32" fill="white"/>
</clipPath>
</defs>
</svg>
