<svg width="32" height="32" viewBox="0 0 32 32" fill="none" xmlns="http://www.w3.org/2000/svg">
<g clip-path="url(#clip0_78_5600)">
<path fill-rule="evenodd" clip-rule="evenodd" d="M9.33335 16C9.33335 15.2636 9.93031 14.6667 10.6667 14.6667H10.68C11.4164 14.6667 12.0134 15.2636 12.0134 16C12.0134 16.7364 11.4164 17.3333 10.68 17.3333H10.6667C9.93031 17.3333 9.33335 16.7364 9.33335 16ZM14.6667 16C14.6667 15.2636 15.2636 14.6667 16 14.6667H16.0134C16.7498 14.6667 17.3467 15.2636 17.3467 16C17.3467 16.7364 16.7498 17.3333 16.0134 17.3333H16C15.2636 17.3333 14.6667 16.7364 14.6667 16ZM21.3334 14.6667C20.597 14.6667 20 15.2636 20 16C20 16.7364 20.597 17.3333 21.3334 17.3333H21.3467C22.0831 17.3333 22.68 16.7364 22.68 16C22.68 15.2636 22.0831 14.6667 21.3467 14.6667H21.3334ZM2.66669 16C2.66669 8.6362 8.63622 2.66666 16 2.66666C23.3638 2.66666 29.3334 8.6362 29.3334 16C29.3334 23.3637 23.3638 29.3333 16 29.3333C8.63622 29.3333 2.66669 23.3637 2.66669 16Z" fill="#201A13"/>
</g>
<defs>
<clipPath id="clip0_78_5600">
<rect width="32" height="32" fill="white"/>
</clipPath>
</defs>
</svg>
