<svg width="32" height="32" viewBox="0 0 32 32" fill="none" xmlns="http://www.w3.org/2000/svg">
<g clip-path="url(#clip0_263_12223)">
<path fill-rule="evenodd" clip-rule="evenodd" d="M32 3.28203V18.4945C32 22.2558 29.0818 25.5279 25.4209 25.4344C21.2264 25.3261 17.9984 21.0659 19.5749 16.5055C20.4438 13.9914 22.8764 12.3488 25.4736 12.3078C26.7131 12.2898 27.1619 12.6112 28.8055 13.1855V8.20508C28.8055 7.29924 28.0899 6.56406 27.2082 6.56406H14.4301C13.5484 6.56406 12.8328 7.29924 12.8328 8.20508V25.0535C12.8328 28.8328 9.88744 32.1167 6.21053 31.9969C2.69015 31.882 -0.137021 28.8443 0.00513598 25.1684C0.144098 21.6254 3.18371 18.9473 6.63541 18.8652C8.26622 18.8258 8.5633 19.0821 9.63827 19.75V3.28203C9.63827 1.46869 11.0694 0 12.8328 0H28.8055C30.5705 0 32 1.46869 32 3.28203Z" fill="black"/>
</g>
<defs>
<clipPath id="clip0_263_12223">
<rect width="32" height="32" fill="white"/>
</clipPath>
</defs>
</svg>
