<svg width="48" height="48" viewBox="0 0 48 48" fill="none" xmlns="http://www.w3.org/2000/svg">
<g clip-path="url(#clip0_600_39607)">
<path d="M10.7296 13.0835C10.4436 13.3275 10.1681 13.5805 9.90563 13.8395C6.97513 16.7285 5.49363 20.5025 5.46263 24.3955C5.43263 28.2835 6.84813 32.287 9.71213 35.6435C10.0111 35.9935 10.3266 36.3385 10.6571 36.674C14.1286 40.1935 18.6841 42.1755 23.2426 42.5325C27.8076 42.891 32.3796 41.6205 35.8746 38.638C36.1616 38.3935 36.4361 38.1405 36.7001 37.8815C39.6286 34.9925 41.1121 31.2185 41.1416 27.324C41.1731 23.4375 39.7561 19.432 36.8921 16.0775C36.5931 15.726 36.2776 15.3825 35.9471 15.047C32.4751 11.5255 27.9201 9.5435 23.3616 9.187C18.7961 8.83 14.2261 10.1005 10.7296 13.0835ZM10.2586 14.2C10.5146 13.9485 10.7806 13.7045 11.0581 13.468C14.4476 10.576 18.8856 9.3455 23.3216 9.6925C27.7646 10.041 32.2046 11.9715 35.5871 15.4005C35.9091 15.729 36.2166 16.0645 36.5086 16.4065C39.2901 19.667 40.6661 23.553 40.6361 27.3205C40.6066 31.083 39.1761 34.73 36.3451 37.5195C36.0906 37.7705 35.8231 38.0165 35.5456 38.253C32.1581 41.145 27.7186 42.3755 23.2821 42.027C18.8391 41.68 14.3996 39.7495 11.0186 36.319C10.6966 35.992 10.3876 35.6565 10.0971 35.3145C7.31413 32.054 5.93813 28.168 5.96763 24.4005C5.99763 20.638 7.42963 16.991 10.2586 14.2Z" fill="#EED600"/>
<path fill-rule="evenodd" clip-rule="evenodd" d="M17.8565 10.3545C9.29246 13.3625 4.78846 22.742 7.79596 31.306C10.804 39.87 20.1835 44.374 28.7475 41.3665C37.3115 38.3585 41.817 28.979 38.8095 20.415C35.8015 11.851 26.42 7.3455 17.8565 10.3545Z" fill="#76BE8C"/>
<path fill-rule="evenodd" clip-rule="evenodd" d="M16.9596 42.402C13.4581 41.5895 11.7336 40.2695 9.09609 36.8195C6.45659 33.369 5.95109 38.4925 10.2141 40.7255C14.4756 42.9585 20.4611 43.213 16.9596 42.402Z" fill="#FFEB36"/>
<path fill-rule="evenodd" clip-rule="evenodd" d="M28.8034 8.936C32.3049 9.7485 34.0294 11.0665 36.6669 14.517C39.3064 17.967 39.8119 12.8455 35.5504 10.6125C31.2874 8.3795 25.3019 8.125 28.8034 8.936Z" fill="#FFEB36"/>
<mask id="mask0_600_39607" style="mask-type:luminance" maskUnits="userSpaceOnUse" x="16" y="35" width="2" height="1">
<path d="M16.7681 35.4995H17.0311V35.9825H16.7681V35.4995Z" fill="white"/>
</mask>
<g mask="url(#mask0_600_39607)">
<mask id="mask1_600_39607" style="mask-type:luminance" maskUnits="userSpaceOnUse" x="15" y="35" width="3" height="1">
<path d="M16.8854 35.9755C16.2504 35.6895 15.7289 35.8825 15.5484 35.9695C15.5459 35.971 15.5434 35.972 15.5409 35.9725C15.5384 35.9735 15.5359 35.9745 15.5334 35.975C15.5309 35.9755 15.5284 35.976 15.5254 35.9765C15.5229 35.9765 15.5204 35.977 15.5174 35.977C15.5149 35.977 15.5124 35.977 15.5094 35.977C15.5069 35.9765 15.5044 35.9765 15.5019 35.976C15.4989 35.9755 15.4964 35.9745 15.4939 35.974C15.4914 35.973 15.4889 35.9725 15.4864 35.9715C15.4839 35.9705 15.4814 35.969 15.4794 35.968C15.4769 35.9665 15.4744 35.9655 15.4724 35.964C15.4699 35.9625 15.4679 35.9605 15.4659 35.959C15.4639 35.9575 15.4619 35.9555 15.4599 35.9535C15.4584 35.9515 15.4564 35.9495 15.4549 35.9475C15.4534 35.9455 15.4514 35.943 15.4504 35.941C15.4489 35.9385 15.4474 35.9365 15.4464 35.934C15.4449 35.9315 15.4439 35.929 15.4429 35.9265L15.4159 35.8645C15.4134 35.86 15.4114 35.855 15.4094 35.85C15.4079 35.845 15.4064 35.8405 15.4049 35.835C15.4034 35.83 15.4024 35.825 15.4014 35.82C15.4009 35.8145 15.3999 35.8095 15.3999 35.8045C15.3994 35.799 15.3994 35.794 15.3994 35.7885C15.3994 35.7835 15.3999 35.778 15.4004 35.773C15.4014 35.768 15.4019 35.7625 15.4034 35.7575C15.4044 35.7525 15.4059 35.7475 15.4074 35.7425C15.4089 35.7375 15.4109 35.7325 15.4129 35.728C15.4149 35.723 15.4174 35.7185 15.4199 35.714C15.4224 35.7095 15.4254 35.705 15.4279 35.7005C15.4309 35.696 15.4344 35.692 15.4374 35.688C15.4409 35.684 15.4444 35.6805 15.4484 35.6765C15.4519 35.673 15.4559 35.6695 15.4599 35.666C15.4639 35.663 15.4684 35.66 15.4724 35.657C15.4769 35.654 15.4814 35.6515 15.4859 35.649C15.5149 35.6365 15.5439 35.625 15.5729 35.614C15.6024 35.603 15.6319 35.593 15.6614 35.5835C15.6914 35.5745 15.7214 35.5655 15.7519 35.558C15.7819 35.55 15.8124 35.543 15.8429 35.5365C15.8734 35.5305 15.9044 35.525 15.9354 35.52C15.9659 35.5155 15.9969 35.5115 16.0284 35.5085C16.0594 35.5055 16.0904 35.503 16.1214 35.5015C16.1529 35.5 16.1839 35.4995 16.2154 35.4995C16.2464 35.4995 16.2779 35.5005 16.3089 35.502C16.3399 35.5035 16.3714 35.506 16.4024 35.5095C16.4334 35.5125 16.4644 35.5165 16.4954 35.5215C16.5259 35.5265 16.5569 35.532 16.5874 35.5385C16.6179 35.545 16.6484 35.552 16.6784 35.56C16.7089 35.568 16.7389 35.577 16.7684 35.5865C16.7984 35.596 16.8279 35.606 16.8569 35.617C16.8864 35.6285 16.9154 35.64 16.9439 35.6525C16.9484 35.655 16.9524 35.6575 16.9569 35.66C16.9609 35.663 16.9649 35.6655 16.9689 35.669C16.9729 35.672 16.9764 35.675 16.9804 35.6785C16.9839 35.682 16.9874 35.6855 16.9904 35.6895C16.9939 35.693 16.9969 35.697 16.9999 35.701C17.0029 35.705 17.0054 35.7095 17.0079 35.7135C17.0104 35.718 17.0129 35.7225 17.0149 35.727C17.0174 35.7315 17.0194 35.736 17.0209 35.7405C17.0224 35.7455 17.0239 35.75 17.0254 35.755C17.0264 35.76 17.0279 35.7645 17.0284 35.7695C17.0294 35.7745 17.0299 35.7795 17.0304 35.7845C17.0309 35.7895 17.0309 35.7945 17.0309 35.7995C17.0304 35.8045 17.0304 35.8095 17.0299 35.8145C17.0294 35.8195 17.0284 35.8245 17.0274 35.829C17.0264 35.834 17.0254 35.839 17.0239 35.8435C17.0224 35.8485 17.0204 35.853 17.0189 35.858L16.9924 35.925C16.9914 35.9275 16.9909 35.93 16.9894 35.9325C16.9884 35.9355 16.9874 35.938 16.9859 35.9405C16.9849 35.943 16.9834 35.945 16.9819 35.9475C16.9799 35.95 16.9784 35.952 16.9764 35.954C16.9749 35.956 16.9729 35.958 16.9709 35.96C16.9689 35.962 16.9669 35.964 16.9644 35.9655C16.9624 35.9675 16.9599 35.969 16.9579 35.9705C16.9554 35.972 16.9529 35.973 16.9504 35.9745C16.9479 35.9755 16.9454 35.9765 16.9424 35.9775C16.9399 35.9785 16.9374 35.979 16.9344 35.98C16.9319 35.9805 16.9294 35.981 16.9264 35.9815C16.9234 35.9815 16.9209 35.982 16.9179 35.982C16.9154 35.982 16.9124 35.982 16.9099 35.9815C16.9069 35.9815 16.9044 35.981 16.9014 35.9805C16.8989 35.98 16.8959 35.9795 16.8934 35.9785C16.8909 35.9775 16.8879 35.9765 16.8854 35.9755Z" fill="white"/>
</mask>
<g mask="url(#mask1_600_39607)">
<path d="M16.7729 35.226L16.7969 35.2065L17.9009 36.5885L17.8769 36.6075L16.7729 35.226Z" fill="#B67638"/>
</g>
</g>
<path d="M16.0969 26.269L16.4822 25.8136L17.1477 27.7051H15.8167H15.4314L15.6766 26.4441H15.8167C15.9356 26.4066 15.9975 26.3705 16.0969 26.269Z" fill="#A06E46" stroke="black" stroke-width="0.035027"/>
<path d="M16.7325 24.8374L16.8687 24.3067L22.3152 23.2216L22.9829 23.4386L23.3132 23.7787C23.6509 24.1262 23.9058 24.5454 24.059 25.005L24.1776 25.3607L24.8603 25.7845C25.0369 25.8942 25.1984 26.0265 25.3406 26.178L26.0807 26.9664C26.6737 27.5982 27.0741 28.386 27.235 29.2375L27.4062 30.1439C27.4323 30.2818 27.4376 30.4233 27.4209 30.5626C27.2329 32.1286 27.0199 32.8778 26.567 34.0099C24.6023 34.3874 24.7004 34.9262 20.9655 34.2902L19.4593 33.6947L18.7806 33.3445C18.0596 32.9726 17.6066 32.2292 17.6066 31.4179L17.2201 27.8718L16.8755 27.0151C16.5971 26.323 16.547 25.56 16.7325 24.8374Z" fill="#A06E46" stroke="black" stroke-width="0.035027"/>
<path d="M20.6309 24.735L20.5862 24.624C20.4678 24.3307 20.6149 23.9975 20.9114 23.8873L20.9547 23.8712C20.9887 23.8586 21.0246 23.8521 21.0609 23.8521C21.2488 23.8521 21.392 24.0205 21.3617 24.206L21.3608 24.2114C21.3543 24.2517 21.3557 24.2929 21.3652 24.3326L21.3709 24.3568C21.4016 24.486 21.4897 24.5941 21.6101 24.65L21.7455 24.7129C21.8651 24.7685 21.9678 24.855 22.0428 24.9636L22.3098 25.3495L22.6561 25.7871C22.7851 25.9501 22.9337 26.0965 23.0986 26.223L23.1521 26.264C23.2476 26.3373 23.3377 26.4173 23.4217 26.5034L23.8289 26.9205C24.0023 27.0981 24.1485 27.3004 24.2629 27.5208L24.5487 28.0719C24.6246 28.2181 24.6859 28.3715 24.7319 28.5297L24.8333 28.8787C24.8467 28.925 24.8536 28.973 24.8536 29.0213V29.1008C24.8536 29.2761 24.7401 29.4312 24.573 29.4843C24.487 29.5116 24.3942 29.5092 24.3097 29.4775L24.3044 29.4755C24.171 29.4254 24.0731 29.3106 24.0398 29.1721C23.8857 28.5319 23.7061 28.1344 23.2955 27.4949L23.0511 27.1391C22.919 26.9469 22.7447 26.7874 22.5415 26.6729L22.4793 26.6379C22.2648 26.5171 22.0895 26.3372 21.9743 26.1197C21.9436 26.0617 21.9085 26.0061 21.8693 25.9535L21.6001 25.5921C21.481 25.4321 21.3297 25.2989 21.1559 25.2011L20.927 25.0721C20.7929 24.9966 20.6885 24.8777 20.6309 24.735Z" fill="#FEFEFE"/>
<path d="M22.2471 24.4448L22.0614 24.3135C21.9391 24.227 21.8334 24.1192 21.7493 23.9953L21.7017 23.9252C21.6782 23.8905 21.6588 23.8531 21.644 23.8138L21.5796 23.6428C21.5223 23.4906 21.5866 23.3195 21.73 23.2428C21.9187 23.1417 22.1526 23.2517 22.2 23.4605C22.2106 23.5071 22.2314 23.5515 22.2607 23.5893L22.347 23.7006C22.435 23.814 22.5472 23.9064 22.6755 23.9708L22.7775 24.022C22.9876 24.1276 23.1692 24.2821 23.307 24.4726L23.3383 24.5158C23.434 24.6481 23.5093 24.7947 23.561 24.9497C23.7138 25.4069 24.0644 25.7727 24.5153 25.9436C24.7155 26.0195 24.8986 26.1347 25.0537 26.2824L25.5543 26.7594L26.108 27.4283C26.2746 27.6295 26.4049 27.8582 26.4933 28.1041L26.5923 28.3793C26.6108 28.4308 26.6206 28.4849 26.6215 28.5396L26.6231 28.6423C26.6251 28.7707 26.5533 28.8889 26.4383 28.9462C26.3635 28.9835 26.2775 28.9914 26.1972 28.9683L26.1644 28.9588C26.0283 28.9197 25.9214 28.8146 25.8776 28.6799C25.6421 27.9543 25.4259 27.4778 24.8187 26.9345L24.3954 26.4642C24.2606 26.3144 24.0827 26.21 23.8862 26.1653C23.5904 26.098 23.3427 25.8971 23.2158 25.6216L23.2075 25.6035L22.909 25.1376C22.7351 24.8662 22.5104 24.6309 22.2471 24.4448Z" fill="#FEFEFE"/>
<path d="M16.5926 24.9074L16.7288 24.3767L17.9884 24.6577L18.759 31.8383L18.0396 31.5113C18.0059 31.4959 17.9693 31.488 17.9322 31.488C17.6673 31.488 17.445 31.2885 17.4163 31.0252L17.0802 27.9418L16.7356 27.0852C16.4573 26.393 16.4071 25.6301 16.5926 24.9074Z" fill="#EEEEEE"/>
<path d="M16.5926 24.9074L16.7288 24.3767L17.9884 24.6577L18.759 31.8383L18.0396 31.5113C18.0059 31.4959 17.9693 31.488 17.9322 31.488C17.6673 31.488 17.445 31.2885 17.4163 31.0252L17.0802 27.9418L16.7356 27.0852C16.4573 26.393 16.4071 25.6301 16.5926 24.9074Z" fill="#E8D9C5"/>
<path d="M18.759 31.8383L18.0396 31.5113C18.0059 31.4959 17.9693 31.488 17.9322 31.488V31.488C17.6673 31.488 17.445 31.2885 17.4163 31.0252L17.0802 27.9418L16.7356 27.0852C16.4573 26.393 16.4071 25.6301 16.5926 24.9074L16.7288 24.3767L17.9884 24.6577" stroke="black" stroke-width="0.035027"/>
<path d="M17.6236 34.3363C17.5019 34.2827 17.4587 34.1617 17.4446 34.0275C17.427 33.8596 17.498 33.6912 17.6275 33.5829C17.8103 33.4302 17.9418 33.4085 18.1898 33.3098C17.6843 32.9629 17.4264 32.8048 17.238 32.1692C17.0916 31.6749 17.1283 31.2738 17.3112 30.7244C17.423 30.3865 17.5047 30.2646 17.8264 29.9725C17.9445 29.8652 18.0824 29.7813 18.2301 29.7208C18.5595 29.5858 18.8087 29.4946 19.2147 29.537C19.2386 29.5394 19.2629 29.5424 19.2879 29.5458L22.0865 30.9976C21.7255 31.8219 20.7067 31.8078 20.4753 32.6789C20.3995 33.2975 20.4054 33.6709 20.5204 34.1864C20.5647 34.3845 20.4827 34.623 20.2816 34.6508C20.1678 34.6665 19.994 34.6755 19.7047 34.6755C18.6318 34.6786 18.2246 34.5443 17.6236 34.3363Z" fill="#A06E46"/>
<path d="M19.2879 29.5458C19.2629 29.5424 19.2386 29.5394 19.2147 29.537C18.8087 29.4946 18.5595 29.5858 18.2301 29.7208C18.0824 29.7813 17.9445 29.8652 17.8264 29.9725C17.5047 30.2646 17.423 30.3865 17.3112 30.7244C17.1283 31.2738 17.0916 31.6749 17.238 32.1692C17.4264 32.8048 17.6843 32.9629 18.1898 33.3098C17.9418 33.4085 17.8103 33.4302 17.6275 33.5829C17.498 33.6912 17.427 33.8596 17.4446 34.0275C17.4587 34.1617 17.5019 34.2827 17.6236 34.3363C18.2246 34.5443 18.6318 34.6786 19.7047 34.6755C19.994 34.6755 20.1678 34.6665 20.2816 34.6508C20.4827 34.623 20.5616 34.3849 20.5234 34.1856C20.4512 33.8091 20.5322 33.7341 20.6057 33.1343" stroke="black" stroke-width="0.035027"/>
<path d="M29.2319 33.5196C28.513 34.0587 27.429 34.2137 26.5161 34.2616C25.8169 34.2983 25.2388 33.7123 25.2388 33.0122V32.4922C25.2388 32.0924 25.563 31.7682 25.9628 31.7682C26.314 31.7682 26.6145 31.5163 26.6758 31.1705L27.0046 29.3149C27.0416 29.1063 27.0581 28.8939 27.0424 28.6825C26.9482 27.4103 26.5938 26.5264 26.0444 24.9379L25.4963 23.3902C25.0724 22.1935 24.898 20.9203 25.0083 19.6555C25.061 19.0504 25.1108 18.5383 25.16 18.0974C25.3426 16.4603 26.4898 15.1693 27.9972 14.5052C29.6542 13.7752 31.5598 13.8778 33.1288 14.7816L33.7842 15.1591C34.5763 15.6154 35.1802 16.3387 35.4877 17.1996C35.6361 17.6151 35.7119 18.053 35.7119 18.4941V18.9076C35.7119 19.3074 35.674 19.7067 35.5994 20.0995C35.5735 20.2356 35.548 20.3685 35.5218 20.4989C35.1429 22.385 33.3169 23.4067 31.4036 23.6069C31.2183 24.487 31.1935 25.3934 31.3303 26.2823L31.4086 26.7907C31.584 27.93 31.574 29.0999 31.1809 30.1835C30.7065 31.4911 29.9874 32.9529 29.2319 33.5196Z" fill="#A06E46"/>
<path d="M31.4036 23.6069V23.6069C33.3169 23.4067 35.1429 22.385 35.5218 20.4989C35.548 20.3685 35.5735 20.2356 35.5994 20.0995C35.674 19.7067 35.7119 19.3074 35.7119 18.9076V18.4941C35.7119 18.053 35.636 17.6151 35.4877 17.1996V17.1996C35.1802 16.3387 34.5763 15.6154 33.7842 15.1591L33.1288 14.7816C31.5598 13.8778 29.6542 13.7752 27.9972 14.5052V14.5052C26.4898 15.1693 25.3426 16.4603 25.16 18.0974C25.1108 18.5383 25.061 19.0504 25.0083 19.6555C24.898 20.9203 25.0724 22.1935 25.4963 23.3902L26.0444 24.9379C26.5938 26.5264 26.9482 27.4103 27.0424 28.6825C27.0581 28.8938 27.0416 29.1063 27.0046 29.3149L26.6758 31.1705C26.6145 31.5163 26.314 31.7682 25.9628 31.7682V31.7682C25.563 31.7682 25.2388 32.0924 25.2388 32.4922V33.0122C25.2388 33.7123 25.8169 34.2983 26.5161 34.2616C27.429 34.2137 28.513 34.0587 29.2319 33.5196C29.9874 32.9529 30.7065 31.4911 31.1809 30.1835C31.574 29.0999 31.584 27.93 31.4086 26.7907L31.3303 26.2823C31.1935 25.3934 31.2183 24.487 31.4036 23.6069V23.6069ZM31.4036 23.6069C30.6777 23.5397 30.1648 23.4129 29.8176 23.2397C29.0599 22.8618 28.6247 21.7552 28.6715 20.9098V20.9098" stroke="black" stroke-width="0.035027"/>
<path d="M29.197 33.5196C28.518 34.0289 27.449 34.1825 26.5196 34.2296C25.7475 34.2688 25.1469 33.5465 25.274 32.784C27.5617 32.784 29.3317 30.779 29.0479 28.5089L28.9749 27.9248C28.9363 27.6158 28.8644 27.3118 28.7604 27.0182L27.2672 22.8004C27.044 22.1699 27.0639 21.4789 27.3232 20.8623C27.837 19.6401 29.1655 18.9755 30.4517 19.297L30.88 19.4041C32.0511 19.6969 32.7793 20.8653 32.5264 22.0456L32.4321 22.4857C32.3166 23.0248 31.9129 23.456 31.3827 23.6069C31.2111 24.4879 31.1896 25.3916 31.3189 26.2798L31.3996 26.8342C31.558 27.9223 31.5525 29.0382 31.1921 30.0771C30.7182 31.4431 29.9835 32.9297 29.197 33.5196Z" fill="#E8D9C5"/>
<path d="M18.1473 25.5184C18.2673 25.3121 18.3921 25.2207 18.7425 25.1131L20.7761 26.5091C20.6848 26.6913 20.9745 27.2296 20.9249 27.6799C20.8753 28.1303 20.6577 28.531 20.4289 28.8508C20.263 29.0698 20.1635 29.1887 19.9329 29.3462C19.6569 29.5034 19.436 29.5291 18.9905 29.5263C18.6984 29.4445 18.535 29.3924 18.2465 29.2561L17.6513 28.8508V29.076C17.6442 29.2011 17.5502 29.4218 17.5025 29.4362C17.4547 29.4507 16.9628 29.4724 16.6096 29.2111C16.4154 29.0274 16.3609 28.889 16.312 28.6256C16.2921 28.3311 16.3315 28.1288 16.4608 27.725C16.619 27.4787 16.7506 27.3709 17.056 27.2296C17.3626 27.1596 17.5662 27.1664 17.9985 27.2747C18.242 27.4381 18.3536 27.5561 18.4945 27.8228C18.5544 27.7042 18.5957 27.5634 18.5937 27.4098C18.5125 27.1648 18.3745 26.9215 18.1473 26.5091C18.0536 26.1507 18.0409 25.9373 18.1473 25.5184Z" fill="#A06E46"/>
<path d="M18.6904 25.2356C18.7001 25.2347 18.7071 25.2262 18.7063 25.2166C18.7054 25.2069 18.6969 25.1998 18.6872 25.2007L18.6904 25.2356ZM18.1634 25.5334L18.1468 25.5279L18.1465 25.5291L18.1634 25.5334ZM18.1634 26.5142L18.1466 26.5192L18.1471 26.5204L18.1634 26.5142ZM18.5935 27.4098L18.6112 27.4074L18.6102 27.4042L18.5935 27.4098ZM17.9883 27.2848L17.9818 27.301L17.9828 27.3014L17.9883 27.2848ZM17.0559 27.2296L17.0516 27.2126L17.0559 27.2296ZM16.4607 27.725L16.4459 27.7155L16.4452 27.7168L16.4607 27.725ZM16.3119 28.6256L16.2944 28.6268L16.3119 28.6256ZM16.6095 29.2111L16.5974 29.2239L16.5988 29.2249L16.6095 29.2111ZM17.6511 29.076L17.6686 29.077V29.076H17.6511ZM17.6682 28.6297C17.6704 28.6203 17.6646 28.6108 17.6552 28.6086C17.6457 28.6064 17.6363 28.6122 17.6341 28.6216L17.6682 28.6297ZM20.4288 28.8508L20.4428 28.8614L20.443 28.861L20.4288 28.8508ZM19.9328 29.3462L19.9415 29.3614L19.9426 29.3606L19.9328 29.3462ZM18.9904 29.5263L18.9855 29.5438L18.9902 29.5438L18.9904 29.5263ZM18.2463 29.2561L18.2364 29.2708L18.2389 29.2719L18.2463 29.2561ZM18.6872 25.2007C18.4946 25.2182 18.3768 25.2447 18.2984 25.2954C18.2187 25.347 18.1821 25.422 18.1468 25.5279L18.18 25.5389C18.2148 25.4347 18.2483 25.3696 18.3174 25.3248C18.3879 25.2792 18.4978 25.2531 18.6904 25.2356L18.6872 25.2007ZM18.1465 25.5291C18.0931 25.7392 18.0665 25.8984 18.0666 26.0495C18.0668 26.2009 18.0938 26.3431 18.1467 26.5192L18.1802 26.5091C18.1279 26.335 18.1018 26.1963 18.1017 26.0495C18.1015 25.9026 18.1274 25.7466 18.1804 25.5377L18.1465 25.5291ZM18.1471 26.5204C18.2351 26.7492 18.3228 26.9127 18.3984 27.0493C18.4742 27.1863 18.5369 27.2947 18.5769 27.4153L18.6102 27.4042C18.5689 27.2799 18.5042 27.1681 18.429 27.0324C18.3537 26.8963 18.2669 26.7344 18.1798 26.5079L18.1471 26.5204ZM17.9948 27.2685C17.9052 27.2327 17.7546 27.1974 17.5844 27.1816C17.4141 27.1659 17.2226 27.1695 17.0516 27.2126L17.0602 27.2466C17.2261 27.2048 17.4133 27.201 17.5812 27.2165C17.7491 27.232 17.8962 27.2668 17.9818 27.301L17.9948 27.2685ZM17.0516 27.2126C16.9713 27.2329 16.8597 27.297 16.7491 27.3858C16.6381 27.4749 16.5263 27.5905 16.446 27.7155L16.4754 27.7344C16.5533 27.6132 16.6623 27.5004 16.771 27.4131C16.8801 27.3255 16.9871 27.265 17.0602 27.2466L17.0516 27.2126ZM16.4452 27.7168C16.3245 27.946 16.2743 28.3305 16.2944 28.6268L16.3294 28.6245C16.3095 28.3317 16.3596 27.9545 16.4762 27.7331L16.4452 27.7168ZM16.2944 28.6268C16.3083 28.8319 16.4004 29.0374 16.5975 29.2238L16.6215 29.1983C16.4302 29.0174 16.3426 28.8199 16.3294 28.6245L16.2944 28.6268ZM16.5988 29.2249C16.7835 29.3676 16.9981 29.4283 17.1718 29.4516C17.2587 29.4632 17.3357 29.4656 17.3942 29.4641C17.4234 29.4633 17.448 29.4616 17.467 29.4596C17.4855 29.4577 17.4997 29.4553 17.5074 29.453L17.4973 29.4195C17.493 29.4207 17.4817 29.4228 17.4633 29.4248C17.4453 29.4267 17.4216 29.4283 17.3933 29.4291C17.3365 29.4305 17.2614 29.4282 17.1764 29.4168C17.0065 29.3941 16.7985 29.3349 16.6202 29.1972L16.5988 29.2249ZM17.5074 29.453C17.5179 29.4498 17.5272 29.442 17.5349 29.4337C17.5431 29.425 17.5514 29.4137 17.5595 29.4008C17.5759 29.3751 17.5927 29.3413 17.6081 29.3044C17.6388 29.2309 17.6649 29.1424 17.6686 29.077L17.6336 29.075C17.6303 29.1347 17.6058 29.2191 17.5758 29.2909C17.5609 29.3266 17.5449 29.3585 17.5299 29.3821C17.5225 29.3939 17.5155 29.4032 17.5093 29.4098C17.5028 29.4168 17.4987 29.419 17.4973 29.4195L17.5074 29.453ZM20.703 28.0383C20.6781 28.264 20.6626 28.3845 20.6253 28.4885C20.5881 28.5923 20.5291 28.6804 20.4145 28.8406L20.443 28.861C20.5572 28.7014 20.6192 28.6094 20.6583 28.5004C20.6972 28.3916 20.7131 28.2667 20.7378 28.0421L20.703 28.0383ZM20.4148 28.8402C20.2494 29.0586 20.1512 29.1758 19.9229 29.3317L19.9426 29.3606C20.1755 29.2016 20.2763 29.081 20.4428 28.8614L20.4148 28.8402ZM19.9241 29.3309C19.6522 29.4858 19.4352 29.5116 18.9905 29.5088L18.9902 29.5438C19.4366 29.5466 19.6613 29.5209 19.9414 29.3614L19.9241 29.3309ZM18.9951 29.5094C18.7035 29.4278 18.5412 29.376 18.2538 29.2403L18.2389 29.2719C18.5286 29.4088 18.693 29.4612 18.9856 29.5432L18.9951 29.5094ZM17.6686 29.076V28.8508H17.6336V29.076H17.6686ZM17.6658 28.8412C17.6584 28.83 17.6539 28.812 17.6521 28.789C17.6504 28.7665 17.6515 28.7414 17.6539 28.7175C17.6563 28.6937 17.6599 28.6717 17.6628 28.6556C17.6643 28.6476 17.6657 28.641 17.6666 28.6365C17.6671 28.6343 17.6675 28.6325 17.6678 28.6314C17.6679 28.6308 17.668 28.6303 17.6681 28.6301C17.6681 28.6299 17.6681 28.6298 17.6682 28.6297C17.6682 28.6297 17.6682 28.6297 17.6682 28.6297C17.6682 28.6297 17.6682 28.6297 17.6682 28.6297C17.6682 28.6297 17.6682 28.6297 17.6682 28.6297C17.6682 28.6297 17.6682 28.6297 17.6511 28.6256C17.6341 28.6216 17.6341 28.6216 17.6341 28.6216C17.6341 28.6216 17.6341 28.6216 17.6341 28.6216C17.6341 28.6216 17.6341 28.6216 17.6341 28.6217C17.6341 28.6217 17.6341 28.6217 17.634 28.6218C17.634 28.6219 17.634 28.622 17.634 28.6222C17.6339 28.6225 17.6338 28.623 17.6336 28.6236C17.6333 28.6249 17.6329 28.6268 17.6324 28.6292C17.6314 28.634 17.63 28.6408 17.6284 28.6492C17.6253 28.666 17.6215 28.689 17.619 28.714C17.6165 28.739 17.6152 28.7664 17.6172 28.7917C17.6191 28.8166 17.6243 28.8417 17.6365 28.8604L17.6658 28.8412ZM18.2562 29.2416L17.661 28.8363L17.6413 28.8653L18.2365 29.2706L18.2562 29.2416ZM18.5762 27.4121C18.6006 27.5962 18.5389 27.6958 18.4787 27.8149L18.51 27.8307C18.5696 27.7127 18.6369 27.6038 18.6109 27.4075L18.5762 27.4121ZM18.4787 27.8149C18.4364 27.8985 18.3847 27.9708 18.3326 28.0285L18.3585 28.052C18.4127 27.9922 18.4662 27.9172 18.51 27.8307L18.4787 27.8149ZM17.9828 27.3014C18.0063 27.3092 18.0404 27.3291 18.0813 27.3601C18.1219 27.3907 18.1681 27.4313 18.2155 27.4792C18.3103 27.5751 18.4094 27.6995 18.4789 27.8309L18.5098 27.8146C18.4384 27.6794 18.337 27.5523 18.2404 27.4546C18.192 27.4057 18.1446 27.364 18.1024 27.3321C18.0607 27.3006 18.0229 27.2778 17.9938 27.2681L17.9828 27.3014Z" fill="black"/>
<path d="M12.3992 26.1639C12.3652 25.9799 12.3701 25.8583 12.6094 25.4634C12.9256 25.2905 13.1111 25.1982 13.5201 25.0781C14.0122 24.9969 14.267 25.0148 14.711 25.0781C15.0988 25.1538 15.2901 25.257 15.6217 25.4634C15.8384 25.7708 15.861 25.9155 15.8669 26.1639C15.8281 26.2757 15.8096 26.3416 15.7268 26.4091L15.4816 27.6701C15.3756 27.9803 15.2727 28.164 14.8511 28.5457C14.6596 28.6609 14.5249 28.7239 14.1156 28.8259C13.8685 28.7228 13.7395 28.6608 13.5201 28.5457C13.1523 28.2525 12.949 28.0864 12.7845 27.6701C12.6147 27.1975 12.575 26.9177 12.5393 26.4091L12.3992 26.1639Z" fill="#9E753E"/>
<path d="M12.5393 26.4091L12.7845 26.5492C13.8621 26.7021 14.4505 26.7005 15.4816 26.5492C15.5889 26.5174 15.6446 26.4907 15.7268 26.4091M12.5393 26.4091L12.3992 26.1639C12.3652 25.9799 12.3701 25.8583 12.6094 25.4634C12.9256 25.2905 13.1111 25.1982 13.5201 25.0781C14.0122 24.9969 14.267 25.0148 14.711 25.0781C15.0988 25.1538 15.2901 25.257 15.6217 25.4634C15.8384 25.7708 15.861 25.9155 15.8669 26.1639C15.8281 26.2757 15.8096 26.3416 15.7268 26.4091M12.5393 26.4091C12.575 26.9177 12.6147 27.1975 12.7845 27.6701C12.949 28.0864 13.1523 28.2525 13.5201 28.5457C13.7395 28.6608 13.8685 28.7228 14.1156 28.8259C14.5249 28.7239 14.6596 28.6609 14.8511 28.5457C15.2727 28.164 15.3756 27.9803 15.4816 27.6701L15.7268 26.4091" stroke="black" stroke-width="0.035027"/>
<path d="M12.6094 25.4634C12.3701 25.8583 12.3652 25.9799 12.3992 26.1639L12.5393 26.4091L12.7845 26.5492C13.8621 26.7021 14.4505 26.7005 15.4816 26.5492C15.5889 26.5174 15.6446 26.4907 15.7268 26.4091C15.8096 26.3416 15.8281 26.2757 15.8669 26.1639C15.861 25.9155 15.8384 25.7708 15.6217 25.4634C15.2901 25.257 15.0988 25.1538 14.711 25.0781C14.267 25.0148 14.0122 24.9969 13.5201 25.0781C13.1111 25.1982 12.9256 25.2905 12.6094 25.4634Z" fill="#69563A" stroke="black" stroke-width="0.035027"/>
<path d="M13.9404 25.0781L14.1856 25.6385L14.2206 25.0781L14.3257 24.7978L14.0105 24.6227L13.9404 25.0781Z" fill="#201A13" stroke="black" stroke-width="0.035027"/>
<path d="M18.1169 24.3856C15.4653 25.1471 13.0928 22.7989 13.059 21.9986C13.081 22.0297 13.345 22.2627 13.8185 22.4832C13.1698 22.0133 12.7958 21.0596 12.8115 20.6826C12.9828 20.7878 13.1237 20.7916 13.4436 20.8414L15.9415 20.9176L18.1169 24.3856Z" fill="#E8D9C5"/>
<path d="M18.1169 24.3856C15.4653 25.1471 13.0928 22.7989 13.059 21.9986C13.0909 22.0436 13.631 22.5128 14.5804 22.7532C13.4731 22.7373 12.7903 21.1892 12.8115 20.6826C12.9828 20.7878 13.1237 20.7916 13.4436 20.8414L15.9415 20.9176L18.1169 24.3856Z" stroke="black" stroke-width="0.035027"/>
<path d="M18.556 24.3615C21.2076 25.1231 23.58 22.7749 23.6138 21.9745C23.5919 22.0056 23.3278 22.2387 22.8543 22.4591C23.503 21.9893 23.8771 21.0356 23.8613 20.6586C23.6901 20.7638 23.5491 20.7675 23.2292 20.8174L20.7314 20.8936L18.556 24.3615Z" fill="#E8D9C5"/>
<path d="M18.556 24.3615C21.2076 25.1231 23.58 22.7749 23.6138 21.9745C23.582 22.0196 23.0418 22.4888 22.0925 22.7291C23.1997 22.7132 23.8825 21.1652 23.8613 20.6586C23.6901 20.7638 23.5491 20.7675 23.2292 20.8174L20.7314 20.8936L18.556 24.3615Z" stroke="black" stroke-width="0.035027"/>
<path d="M15.0537 24.0115C15.045 24.0073 15.0345 24.0109 15.0304 24.0197C15.0262 24.0284 15.0298 24.0388 15.0386 24.043L15.0537 24.0115ZM17.391 24.6751L17.4084 24.6771L17.4123 24.6423L17.3949 24.6403L17.391 24.6751ZM15.0386 24.043C15.9156 24.4645 16.4441 24.5699 17.391 24.6751L17.3949 24.6403C16.4504 24.5354 15.9261 24.4307 15.0537 24.0115L15.0386 24.043Z" fill="black"/>
<path d="M22.6262 18.2828C22.4927 17.2478 21.2009 15.4751 18.3898 15.446C18.3513 15.4456 18.3191 15.4767 18.3188 15.5151L18.2498 24.6583C18.2495 24.6967 18.1789 24.7295 18.2173 24.7313C18.4246 24.741 20.2925 24.7313 21.4579 24.0454C22.3197 23.5381 23.3634 21.7626 23.2076 21.2408C22.8374 20.0016 22.7608 19.3263 22.6262 18.2828Z" fill="#E8D9C5"/>
<path d="M14.1017 18.3528C14.2352 17.3179 15.4848 15.5452 18.3371 15.516C18.376 15.5156 18.4084 15.5474 18.4081 15.5863L18.3391 24.6572C18.3388 24.6961 18.3609 24.731 18.322 24.7327C18.038 24.7452 16.4034 24.7376 15.2562 24.0623C14.3944 23.555 13.3646 21.8326 13.5204 21.3109C13.8905 20.0716 13.9672 19.3964 14.1017 18.3528Z" fill="#E8D9C5"/>
<path d="M15.5992 14.313C15.6837 14.7814 16.4155 15.7442 16.1613 17.1257C16.1592 17.1369 16.1517 17.1467 16.1413 17.1517L14.1195 18.1173C14.0951 18.129 14.0676 18.1107 14.0692 18.0843C14.1185 17.2501 13.8327 16.7671 14.5091 15.6568C14.999 14.8551 15.1954 14.6139 15.4952 14.2776C15.5205 14.2493 15.5926 14.2766 15.5992 14.313Z" fill="#E8D9C5" stroke="black" stroke-width="0.035027"/>
<path d="M21.0812 14.313C20.9967 14.7814 20.2649 15.7442 20.5191 17.1257C20.5212 17.1369 20.5287 17.1467 20.5392 17.1517L22.5609 18.1173C22.5853 18.129 22.6128 18.1107 22.6112 18.0843C22.5619 17.2501 22.8477 16.7671 22.1713 15.6568C21.6815 14.8551 21.4851 14.6139 21.1852 14.2776C21.1599 14.2493 21.0878 14.2766 21.0812 14.313Z" fill="#E8D9C5" stroke="black" stroke-width="0.035027"/>
<path d="M18.3656 15.4456C18.3656 15.4456 18.2416 21.8084 18.3306 21.8556C18.3306 21.8556 18.3736 22.0657 18.6188 21.7855C18.8412 21.2966 18.7059 19.5969 19.1792 18.9133C19.9614 17.7834 21.0046 18.2249 21.2848 18.295C21.6 18.4 21.8885 18.5401 22.0554 18.7853C22.5924 19.5742 22.9661 20.922 22.9661 20.922L23.1062 20.7819C22.9661 20.3966 22.7559 19.8361 22.6859 18.5752C22.6158 17.3142 21.9138 16.7538 21.7051 16.5786C21.4964 16.4035 20.948 16.016 20.4685 15.808C19.8762 15.5511 19.2419 15.4456 18.3656 15.4456Z" fill="#A06E46" stroke="black" stroke-width="0.035027"/>
<path d="M18.4087 15.4456C18.4087 15.4456 18.6028 21.8084 18.5138 21.8556C18.5138 21.8556 18.1686 22.1047 18.0234 21.7855C17.801 21.2966 17.9362 19.5269 17.463 18.8432C16.6807 17.7133 15.6766 18.2828 15.3964 18.3529C15.0811 18.4579 14.7927 18.598 14.6258 18.8432C14.0888 19.6321 13.7151 20.9799 13.7151 20.9799L13.575 20.8398C13.7151 20.4545 13.9252 19.894 13.9953 18.6331C14.0653 17.3721 14.7673 16.8117 14.976 16.6365C15.1847 16.4614 15.7332 16.0739 16.2127 15.8659C16.805 15.609 17.5324 15.4456 18.4087 15.4456Z" fill="#A06E46"/>
<path d="M18.4087 15.4456C17.5324 15.4456 16.805 15.609 16.2127 15.8659C15.7332 16.0739 15.1847 16.4614 14.976 16.6365C14.7673 16.8117 14.0653 17.3721 13.9953 18.6331C13.9252 19.894 13.7151 20.4545 13.575 20.8398L13.7151 20.9799C13.7151 20.9799 14.0888 19.6321 14.6258 18.8432C14.7927 18.598 15.0811 18.4579 15.3964 18.3529C15.6766 18.2828 16.6807 17.7133 17.463 18.8432C17.9362 19.5269 17.801 21.2966 18.0234 21.7855C18.1686 22.1047 18.5138 21.8556 18.5138 21.8556" stroke="black" stroke-width="0.035027"/>
<path d="M21.0927 14.2733C21.047 14.5777 20.7046 15.1024 20.5499 15.8248C20.5475 15.8361 20.551 15.8482 20.5594 15.8567L21.8532 17.1741C21.8532 17.1741 21.7131 16.7187 21.6779 16.4035C21.6428 16.0882 21.573 15.5278 21.4679 15.2126C21.3636 14.8997 21.2693 14.6206 21.1895 14.2559C21.1883 14.2506 21.1859 14.2458 21.1823 14.2417C21.1598 14.2166 21.0976 14.2408 21.0927 14.2733Z" fill="#A06E46" stroke="black" stroke-width="0.035027"/>
<path d="M15.5965 14.2962C15.6422 14.6006 15.9847 15.1253 16.1393 15.8477C16.1417 15.859 16.1382 15.871 16.1298 15.8795L14.836 17.197C14.836 17.197 14.9761 16.7416 15.0113 16.4264C15.0464 16.1111 15.1162 15.5507 15.2213 15.2355C15.3256 14.9225 15.4199 14.6435 15.4998 14.2788C15.5009 14.2735 15.5033 14.2687 15.5069 14.2646C15.5294 14.2394 15.5916 14.2637 15.5965 14.2962Z" fill="#A06E46" stroke="black" stroke-width="0.035027"/>
<path d="M19.3841 23.0084C19.3841 23.4323 19.0042 23.677 18.3333 23.8171C17.5627 23.6069 17.2825 23.4323 17.2825 23.0084C17.2825 22.5845 17.7529 22.2409 18.3333 22.2409C18.9136 22.2409 19.3841 22.5845 19.3841 23.0084Z" fill="#FEFEFE"/>
<path d="M18.3402 22.8363C18.3402 23.4747 18.4477 23.1515 19.1441 23.1515C19.7746 22.9414 20.0198 22.3985 19.9848 22.2846C19.9498 22.1708 19.4729 21.9895 19.0407 21.8643C18.3443 21.8643 18.3402 22.1979 18.3402 22.8363Z" fill="#FEFEFE"/>
<path d="M18.3762 22.8626C18.3762 23.501 18.2686 23.1778 17.5722 23.1778C16.8675 23.0114 16.6966 22.4247 16.7316 22.3109C16.7666 22.1971 17.2435 22.0158 17.6756 21.8906C18.3721 21.8906 18.3762 22.2242 18.3762 22.8626Z" fill="#FEFEFE"/>
<path d="M16.901 22.651C16.8953 22.6325 16.8758 22.622 16.8573 22.6277C16.8388 22.6333 16.8283 22.6528 16.8339 22.6713L16.901 22.651ZM18.3279 22.9392L18.3603 22.9524L18.3279 22.9392ZM18.3035 22.2759V22.8719H18.3736V22.2759H18.3035ZM18.2955 22.9259C18.2757 22.9742 18.236 23.0136 18.1596 23.0454C18.082 23.0776 17.9696 23.1007 17.8097 23.1167L17.8166 23.1864C17.9785 23.1702 18.0992 23.1463 18.1865 23.1101C18.2748 23.0733 18.3316 23.0226 18.3603 22.9524L18.2955 22.9259ZM17.8097 23.1167C17.6422 23.1335 17.4358 23.0902 17.2596 23.0042C17.0824 22.9178 16.9438 22.7924 16.901 22.651L16.8339 22.6713C16.885 22.8399 17.0442 22.9772 17.2288 23.0672C17.4144 23.1577 17.6338 23.2047 17.8166 23.1864L17.8097 23.1167ZM18.3035 22.8719C18.3035 22.8932 18.3016 22.911 18.2955 22.9259L18.3603 22.9524C18.3716 22.9249 18.3736 22.8963 18.3736 22.8719H18.3035Z" fill="black"/>
<path d="M18.3387 22.2409V22.8368C18.3387 22.8598 18.3414 22.8827 18.3471 22.9049C18.3763 23.0192 18.4097 23.0616 18.8641 23.1165C19.3605 23.1766 19.9409 22.6763 19.915 22.3459M19.7748 22.3459C19.8474 22.2756 19.9945 22.2872 20.0901 22.381" stroke="black" stroke-width="0.0700541" stroke-linecap="round"/>
<path d="M17.8492 21.7892C17.8759 21.7305 18.7388 21.7452 18.7588 21.7892C18.7789 21.8331 18.7132 21.8944 18.6403 21.9924C18.4488 22.138 18.3836 22.3757 18.3302 22.3757C18.2767 22.3757 18.1807 22.1439 17.9828 21.9924C17.9008 21.8944 17.8394 21.8106 17.8492 21.7892Z" fill="#1A140D"/>
<path d="M17.5153 19.846C17.6149 20.2314 17.5299 20.8291 17.4751 21.0525C17.1936 21.1329 16.8719 21.2535 16.4698 21.2535C15.7459 21.2535 15.1025 20.9318 14.9019 20.2077C14.8441 19.9991 14.8495 19.5912 14.8944 19.2831C15.0286 19.0914 15.5851 18.8005 15.9053 18.7518C16.8215 18.6124 17.305 19.098 17.5153 19.846Z" fill="#1A140D"/>
<path d="M17.1476 19.7989C17.1476 19.9056 17.1384 20.0236 17.0658 20.0942C16.9914 20.1667 16.8667 20.1518 16.7744 20.0942C16.6222 19.9991 16.6407 19.9519 16.4823 19.774C16.3597 19.6363 16.333 19.6866 16.2211 19.5088C16.1703 19.4127 16.1451 19.3007 16.2211 19.2296C16.2951 19.1604 16.3704 19.1585 16.4823 19.1585C16.709 19.1585 17.1103 19.5605 17.1476 19.7989Z" fill="#FEFEFE"/>
<path d="M20.7555 19.7539C20.2316 19.9821 19.2844 21.3652 19.4945 21.155C19.7047 20.9449 20.9339 19.5243 22.1916 19.7539C22.4107 19.6715 21.4191 19.4649 20.7555 19.7539Z" fill="#1A140D"/>
<path d="M29.4209 22.1949C29.4149 22.1874 29.4039 22.1861 29.3963 22.1921C29.3888 22.1981 29.3875 22.2092 29.3935 22.2167L29.4209 22.1949ZM31.5746 23.5689C31.2535 23.6496 30.8624 23.6047 30.2701 23.322L30.255 23.3536C30.8512 23.6381 31.2511 23.6864 31.5832 23.6029L31.5746 23.5689ZM29.5166 22.4715C29.4973 22.4051 29.4802 22.3449 29.4649 22.2975C29.4573 22.2737 29.4499 22.2529 29.4429 22.2358C29.4359 22.2191 29.4287 22.2047 29.4209 22.1949L29.3935 22.2167C29.3981 22.2225 29.4038 22.2331 29.4105 22.2492C29.4171 22.265 29.424 22.2849 29.4316 22.3082C29.4467 22.355 29.4635 22.4144 29.4829 22.4813L29.5166 22.4715ZM30.2701 23.322C29.91 23.1501 29.6275 22.8533 29.5166 22.4715L29.4829 22.4813C29.5971 22.8741 29.8873 23.1781 30.255 23.3536L30.2701 23.322Z" fill="black"/>
</g>
<defs>
<clipPath id="clip0_600_39607">
<rect width="48" height="48" fill="white"/>
</clipPath>
</defs>
</svg>
