<svg width="32" height="32" viewBox="0 0 32 32" fill="none" xmlns="http://www.w3.org/2000/svg">
<g clip-path="url(#clip0_78_5633)">
<path fill-rule="evenodd" clip-rule="evenodd" d="M26.6666 6.66667V25.3333C26.6666 27.5425 24.8758 29.3333 22.6666 29.3333H21.3333C19.1241 29.3333 17.3333 27.5425 17.3333 25.3333V6.66667C17.3333 4.45752 19.1241 2.66667 21.3333 2.66667H22.6666C24.8758 2.66667 26.6666 4.45753 26.6666 6.66667Z" fill="#201A13"/>
<path fill-rule="evenodd" clip-rule="evenodd" d="M10.6666 2.66667C12.8758 2.66667 14.6666 4.45753 14.6666 6.66667V25.3333C14.6666 27.5425 12.8758 29.3333 10.6666 29.3333H9.33331C7.12418 29.3333 5.33331 27.5425 5.33331 25.3333V6.66667C5.33331 4.45752 7.12418 2.66667 9.33331 2.66667H10.6666Z" fill="#201A13"/>
</g>
<defs>
<clipPath id="clip0_78_5633">
<rect width="32" height="32" fill="white"/>
</clipPath>
</defs>
</svg>
