<svg width="32" height="32" viewBox="0 0 32 32" fill="none" xmlns="http://www.w3.org/2000/svg">
<path d="M9.28659 7.38885H8.14771V5.39017H9.25817C9.97735 5.39017 10.4262 5.73555 10.4262 6.37967V6.39789C10.4262 6.95895 10.0043 7.38885 9.28659 7.38885ZM17.47 7.37865V7.36043C17.47 6.20188 16.6773 5.39017 15.5005 5.39017H14.3893V9.33069H15.5005C16.6773 9.33069 17.47 8.5372 17.47 7.37865ZM28.7043 3.6436V28.3564C28.7043 30.3682 27.0743 31.9996 25.0611 31.9996H6.93816C4.92563 31.9996 3.29492 30.3682 3.29492 28.3564V3.6436C3.29492 1.63181 4.92563 0.000366211 6.93816 0.000366211H25.0603C27.0721 0.000366211 28.7043 1.63181 28.7043 3.6436ZM12.9495 9.90997C12.9495 10.3115 13.2679 10.6291 13.6687 10.6291H15.499C17.5531 10.6291 18.974 9.20027 18.974 7.36043V7.34222C18.974 5.50238 17.5553 4.09245 15.499 4.09245H13.6687C13.2672 4.09245 12.9495 4.41014 12.9495 4.81162V9.90997ZM6.70936 9.96535C6.70936 10.3676 7.02705 10.6845 7.42854 10.6845C7.83002 10.6845 8.14698 10.3668 8.14698 9.96535V8.66835H9.23995C10.706 8.66835 11.882 7.88433 11.882 6.37166V6.35198C11.882 5.0171 10.9392 4.09245 9.37913 4.09245H7.42781C7.0256 4.09245 6.70863 4.41014 6.70863 4.81162L6.70936 9.96535ZM25.2899 26.451C25.2899 25.6466 24.637 24.9937 23.8326 24.9937H8.16666C7.36223 24.9937 6.70936 25.6466 6.70936 26.451C6.70936 27.2554 7.36223 27.9083 8.16666 27.9083H23.8326C24.637 27.9083 25.2899 27.2554 25.2899 26.451ZM25.2899 20.9861C25.2899 20.1817 24.637 19.5288 23.8326 19.5288H8.16666C7.36223 19.5288 6.70936 20.1817 6.70936 20.9861C6.70936 21.7906 7.36223 22.4434 8.16666 22.4434H23.8326C24.637 22.4434 25.2899 21.7906 25.2899 20.9861ZM25.2899 15.5213C25.2899 14.7169 24.637 14.064 23.8326 14.064H13.6315C12.8271 14.064 12.1742 14.7169 12.1742 15.5213C12.1742 16.3257 12.8271 16.9786 13.6315 16.9786H23.8326C24.637 16.9786 25.2899 16.3257 25.2899 15.5213ZM25.2899 4.74605C25.2899 4.38172 25.0013 4.09245 24.637 4.09245H20.9763C20.5741 4.09245 20.2586 4.41014 20.2586 4.81162V9.96535C20.2586 10.3676 20.5762 10.6845 20.9763 10.6845C21.3778 10.6845 21.6947 10.3668 21.6947 9.96535V8.09855H24.2158C24.5802 8.09855 24.8694 7.80928 24.8694 7.44495C24.8694 7.08063 24.5802 6.79136 24.2158 6.79136H21.6947V5.39964H24.6363C25.0006 5.39891 25.2899 5.11037 25.2899 4.74605Z" fill="black"/>
</svg>
