<svg width="32" height="32" viewBox="0 0 32 32" fill="none" xmlns="http://www.w3.org/2000/svg">
<g clip-path="url(#clip0_78_5635)">
<path fill-rule="evenodd" clip-rule="evenodd" d="M29.3334 18.1969V11.968C29.3334 10.2972 29.2456 8.86349 28.9794 7.66553C28.7098 6.45244 28.2398 5.40087 27.4195 4.58057C26.5992 3.76028 25.5476 3.29029 24.3344 3.02069C23.1366 2.75445 21.7028 2.66667 20.032 2.66667H11.968C10.2972 2.66667 8.86351 2.75445 7.66555 3.02069C6.45246 3.29029 5.40089 3.76028 4.58059 4.58057C3.7603 5.40087 3.29031 6.45244 3.02071 7.66553C2.75447 8.86349 2.66669 10.2972 2.66669 11.968V20.032C2.66669 21.7028 2.75447 23.1365 3.02071 24.3344C3.29031 25.5476 3.7603 26.5992 4.58059 27.4195C5.40089 28.2397 6.45246 28.7097 7.66555 28.9793C8.86351 29.2456 10.2972 29.3333 11.968 29.3333H20.032C21.7028 29.3333 23.1366 29.2456 24.3344 28.9793C25.5476 28.7097 26.5992 28.2397 27.4195 27.4195C28.2398 26.5992 28.7098 25.5476 28.9794 24.3344C29.2456 23.1365 29.3334 21.7028 29.3334 20.032V18.2589C29.3339 18.2383 29.3339 18.2176 29.3334 18.1969ZM5.62386 8.24407C5.42135 9.15527 5.33335 10.358 5.33335 11.968V14.7947C6.29318 13.8717 7.1867 13.1166 8.05195 12.566C9.10038 11.8989 10.1763 11.4877 11.3364 11.4877C12.4964 11.4877 13.5723 11.8989 14.6208 12.566C15.6562 13.2249 16.7319 14.1765 17.9134 15.358L20.0804 17.5251C21.3915 16.4443 22.6771 15.698 24.0608 15.5256C24.9723 15.412 25.8319 15.5564 26.6667 15.8931V11.968C26.6667 10.358 26.5787 9.15527 26.3762 8.24407C26.1771 7.34801 25.8854 6.81769 25.5339 6.46619C25.1823 6.11469 24.652 5.82299 23.7559 5.62384C22.8448 5.42133 21.642 5.33333 20.032 5.33333H11.968C10.358 5.33333 9.15529 5.42133 8.24409 5.62384C7.34803 5.82299 6.81771 6.11469 6.46621 6.46619C6.11471 6.81769 5.82301 7.34801 5.62386 8.24407Z" fill="#201A13"/>
<path fill-rule="evenodd" clip-rule="evenodd" d="M18.6667 10.6667C18.6667 9.19391 19.8606 8 21.3334 8C22.8062 8 24 9.19391 24 10.6667C24 12.1394 22.8062 13.3333 21.3334 13.3333C19.8606 13.3333 18.6667 12.1394 18.6667 10.6667Z" fill="#201A13"/>
</g>
<defs>
<clipPath id="clip0_78_5635">
<rect width="32" height="32" fill="white"/>
</clipPath>
</defs>
</svg>
