<svg width="32" height="32" viewBox="0 0 32 32" fill="none" xmlns="http://www.w3.org/2000/svg">
<path fill-rule="evenodd" clip-rule="evenodd" d="M3.38396 5.484C3.60028 5.37148 3.84332 5.32044 4.08663 5.33643C4.32995 5.35241 4.56422 5.43482 4.76396 5.57467L18.0973 14.908C18.2728 15.031 18.4161 15.1944 18.515 15.3845C18.6139 15.5746 18.6656 15.7857 18.6656 16C18.6656 16.2143 18.6139 16.4254 18.515 16.6155C18.4161 16.8056 18.2728 16.969 18.0973 17.092L4.76396 26.4253C4.56417 26.565 4.32991 26.6473 4.08665 26.6631C3.84338 26.679 3.60043 26.6278 3.38421 26.5152C3.16798 26.4026 2.98676 26.2329 2.86024 26.0246C2.73373 25.8162 2.66676 25.5771 2.66663 25.3333V6.66667C2.6666 6.42279 2.73346 6.18357 2.85994 5.97504C2.98642 5.76652 3.16766 5.59668 3.38396 5.484ZM21.3333 7.73334C21.3333 7.09682 21.5861 6.48637 22.0362 6.03628C22.4863 5.58619 23.0968 5.33334 23.7333 5.33334H25.6C25.9151 5.33334 26.2272 5.39541 26.5184 5.51602C26.8096 5.63664 27.0742 5.81342 27.297 6.03628C27.5199 6.25914 27.6967 6.52371 27.8173 6.8149C27.9379 7.10608 28 7.41816 28 7.73334V24.2667C28 24.5818 27.9379 24.8939 27.8173 25.1851C27.6967 25.4763 27.5199 25.7409 27.297 25.9637C27.0742 26.1866 26.8096 26.3634 26.5184 26.484C26.2272 26.6046 25.9151 26.6667 25.6 26.6667H23.7333C23.0968 26.6667 22.4863 26.4138 22.0362 25.9637C21.5861 25.5136 21.3333 24.9032 21.3333 24.2667V7.73334Z" fill="black"/>
</svg>
