<svg width="32" height="32" viewBox="0 0 32 32" fill="none" xmlns="http://www.w3.org/2000/svg">
<g clip-path="url(#clip0_136_6497)">
<path fill-rule="evenodd" clip-rule="evenodd" d="M17.3333 12C17.3333 11.2636 16.7364 10.6667 16 10.6667C15.2636 10.6667 14.6666 11.2636 14.6666 12V14.6667H12C11.2636 14.6667 10.6666 15.2636 10.6666 16C10.6666 16.7364 11.2636 17.3333 12 17.3333H14.6666V20C14.6666 20.7364 15.2636 21.3333 16 21.3333C16.7364 21.3333 17.3333 20.7364 17.3333 20V17.3333H20C20.7364 17.3333 21.3333 16.7364 21.3333 16C21.3333 15.2636 20.7364 14.6667 20 14.6667H17.3333V12ZM2.66663 16C2.66663 8.6362 8.63616 2.66667 16 2.66667C23.3637 2.66667 29.3333 8.6362 29.3333 16C29.3333 23.3637 23.3637 29.3333 16 29.3333C8.63616 29.3333 2.66663 23.3637 2.66663 16Z" fill="#201A13"/>
</g>
<defs>
<clipPath id="clip0_136_6497">
<rect width="32" height="32" fill="white"/>
</clipPath>
</defs>
</svg>
