<svg width="32" height="32" viewBox="0 0 32 32" fill="none" xmlns="http://www.w3.org/2000/svg">
<g clip-path="url(#clip0_78_5612)">
<path fill-rule="evenodd" clip-rule="evenodd" d="M2.66663 16C2.66663 8.6362 8.63616 2.66667 16 2.66667C23.3637 2.66667 29.3333 8.6362 29.3333 16C29.3333 23.3637 23.3637 29.3333 16 29.3333C8.63616 29.3333 2.66663 23.3637 2.66663 16ZM12 15.3333C12 13.4924 13.4924 12 15.3333 12C17.1742 12 18.6666 13.4924 18.6666 15.3333C18.6666 17.1743 17.1742 18.6667 15.3333 18.6667C13.4924 18.6667 12 17.1743 12 15.3333ZM15.3333 9.33333C12.0196 9.33333 9.33329 12.0196 9.33329 15.3333C9.33329 18.6471 12.0196 21.3333 15.3333 21.3333C16.5073 21.3333 17.6026 20.9961 18.5276 20.4133L20.3905 22.2761C20.9112 22.7968 21.7554 22.7968 22.2761 22.2761C22.7968 21.7555 22.7968 20.9112 22.2761 20.3905L20.4133 18.5276C20.9961 17.6027 21.3333 16.5073 21.3333 15.3333C21.3333 12.0196 18.647 9.33333 15.3333 9.33333Z" fill="#201A13"/>
</g>
<defs>
<clipPath id="clip0_78_5612">
<rect width="32" height="32" fill="white"/>
</clipPath>
</defs>
</svg>
