<svg width="32" height="32" viewBox="0 0 32 32" fill="none" xmlns="http://www.w3.org/2000/svg">
<g clip-path="url(#clip0_78_5608)">
<path fill-rule="evenodd" clip-rule="evenodd" d="M14.6849 3.68911C15.172 2.5203 16.8277 2.5203 17.3148 3.68911L19.8803 9.84616C20.0872 10.343 20.5727 10.6667 21.1109 10.6667H27.8573C29.0979 10.6667 29.7191 12.1664 28.8419 13.0436L23.3855 18.5C23.0431 18.8424 22.9133 19.3435 23.0463 19.8091L25.2101 27.3825C25.5755 28.6613 24.1496 29.7023 23.0429 28.9645L16.7395 24.7621C16.2916 24.4636 15.7081 24.4636 15.2603 24.7623L8.96726 28.9576C7.85712 29.6976 6.42651 28.6533 6.79306 27.3705L8.95345 19.8091C9.08648 19.3435 8.95663 18.8424 8.61424 18.5L3.18479 13.0705C2.29771 12.1834 2.92598 10.6667 4.18051 10.6667H10.8888C11.427 10.6667 11.9125 10.343 12.1195 9.84616L14.6849 3.68911Z" fill="#201A13"/>
</g>
<defs>
<clipPath id="clip0_78_5608">
<rect width="32" height="32" fill="white"/>
</clipPath>
</defs>
</svg>
