<svg width="32" height="32" viewBox="0 0 32 32" fill="none" xmlns="http://www.w3.org/2000/svg">
<path d="M10.6666 2.66667H21.3333C23.455 2.66667 25.4899 3.50952 26.9901 5.00981C28.4904 6.5101 29.3333 8.54493 29.3333 10.6667V21.3333C29.3333 23.4551 28.4904 25.4899 26.9901 26.9902C25.4899 28.4905 23.455 29.3333 21.3333 29.3333H10.6666C8.54489 29.3333 6.51006 28.4905 5.00977 26.9902C3.50948 25.4899 2.66663 23.4551 2.66663 21.3333L2.66663 10.6667C2.66663 8.54493 3.50948 6.5101 5.00977 5.00981C6.51006 3.50952 8.54489 2.66667 10.6666 2.66667ZM18.6666 14.6667C18.313 14.6667 17.9739 14.8071 17.7238 15.0572C17.4738 15.3072 17.3333 15.6464 17.3333 16C17.3333 16.3536 17.4738 16.6928 17.7238 16.9428C17.9739 17.1929 18.313 17.3333 18.6666 17.3333H22.6666C23.0202 17.3333 23.3594 17.1929 23.6094 16.9428C23.8595 16.6928 24 16.3536 24 16C24 15.6464 23.8595 15.3072 23.6094 15.0572C23.3594 14.8071 23.0202 14.6667 22.6666 14.6667H18.6666ZM16 20C15.6463 20 15.3072 20.1405 15.0571 20.3905C14.8071 20.6406 14.6666 20.9797 14.6666 21.3333C14.6666 21.687 14.8071 22.0261 15.0571 22.2761C15.3072 22.5262 15.6463 22.6667 16 22.6667H22.6666C23.0202 22.6667 23.3594 22.5262 23.6094 22.2761C23.8595 22.0261 24 21.687 24 21.3333C24 20.9797 23.8595 20.6406 23.6094 20.3905C23.3594 20.1405 23.0202 20 22.6666 20H16ZM16 9.33333C15.6463 9.33333 15.3072 9.47381 15.0571 9.72386C14.8071 9.97391 14.6666 10.313 14.6666 10.6667C14.6666 11.0203 14.8071 11.3594 15.0571 11.6095C15.3072 11.8595 15.6463 12 16 12H22.6666C23.0202 12 23.3594 11.8595 23.6094 11.6095C23.8595 11.3594 24 11.0203 24 10.6667C24 10.313 23.8595 9.97391 23.6094 9.72386C23.3594 9.47381 23.0202 9.33333 22.6666 9.33333H16ZM10.4373 16.324L9.49463 15.3813C9.37163 15.254 9.2245 15.1524 9.06183 15.0825C8.89916 15.0127 8.7242 14.9759 8.54716 14.9743C8.37012 14.9728 8.19455 15.0065 8.03069 15.0736C7.86683 15.1406 7.71796 15.2396 7.59277 15.3648C7.46758 15.49 7.36857 15.6389 7.30153 15.8027C7.23449 15.9666 7.20075 16.1422 7.20229 16.3192C7.20383 16.4962 7.24061 16.6712 7.31049 16.8339C7.38037 16.9965 7.48195 17.1437 7.60929 17.2667L9.49463 19.152C9.61846 19.276 9.76551 19.3743 9.92737 19.4414C10.0892 19.5085 10.2627 19.543 10.438 19.543C10.6132 19.543 10.7867 19.5085 10.9485 19.4414C11.1104 19.3743 11.2575 19.276 11.3813 19.152L15.152 15.3813C15.4023 15.1313 15.5431 14.7921 15.5434 14.4383C15.5436 14.0845 15.4033 13.745 15.1533 13.4947C14.9033 13.2443 14.5641 13.1035 14.2102 13.1033C13.8564 13.103 13.517 13.2433 13.2666 13.4933L10.4373 16.3227V16.324Z" fill="#201A13"/>
</svg>
