<svg width="32" height="32" viewBox="0 0 32 32" fill="none" xmlns="http://www.w3.org/2000/svg">
<g clip-path="url(#clip0_137_9652)">
<path d="M11.5305 13.7872L14.719 16.2466C14.8419 17.2379 15.6775 18.0085 16.7021 18.0085C17.8117 18.0085 18.7109 17.1089 18.7109 15.9998C18.7109 15.9573 18.7011 15.9168 18.6981 15.8748L23.3704 10.3473C23.6961 9.98169 23.7022 9.45482 23.3837 9.17219C23.0657 8.88901 22.544 8.95657 22.2183 9.32269L17.6279 14.2271C17.3493 14.0811 17.038 13.991 16.7021 13.991C16.3432 13.991 16.0108 14.0929 15.7189 14.2583L12.7173 12.1681C12.3302 11.8829 11.7496 12.015 11.4213 12.4626C11.0942 12.909 11.1424 13.5025 11.5305 13.7872Z" fill="black"/>
<path d="M27.5196 5.18281C24.7571 2.41675 20.9208 0.701376 16.7021 0.702439V4.41063C19.9085 4.41169 22.7939 5.70513 24.8973 7.805C26.9967 9.90794 28.2902 12.7938 28.2912 15.9998C28.2902 19.2056 26.9967 22.0915 24.8973 24.1945C22.7939 26.2949 19.9085 27.5883 16.7021 27.5888C13.4962 27.5883 10.6103 26.2949 8.50735 24.1945C6.40747 22.0915 5.11403 19.2056 5.11303 15.9998C5.11353 14.9485 5.25691 13.9362 5.51703 12.972L7.01991 13.9081C7.2191 14.0315 7.46128 14.0576 7.65997 13.9762C7.86016 13.8938 7.99122 13.7161 8.0066 13.5031L8.65385 5.02719C8.67122 4.78444 8.5381 4.53969 8.31185 4.39738C8.08347 4.25713 7.80441 4.24425 7.59497 4.36869L0.273221 8.68569C0.0884086 8.79375 -0.0130289 8.98931 0.00134606 9.20438C0.0156586 9.4205 0.145221 9.62581 0.344909 9.74969L2.26353 10.9448C1.70903 12.5296 1.40435 14.2317 1.40435 15.9998C1.40335 20.2179 3.11972 24.0542 5.88478 26.8172C8.64772 29.5823 12.4835 31.2986 16.7022 31.2976C20.9204 31.2986 24.7572 29.5823 27.5197 26.8172C30.2847 24.0542 32.0011 20.2179 32 15.9998C32.001 11.7811 30.2846 7.94481 27.5196 5.18281Z" fill="black"/>
</g>
<defs>
<clipPath id="clip0_137_9652">
<rect width="32" height="32" fill="white"/>
</clipPath>
</defs>
</svg>
