<svg width="32" height="32" viewBox="0 0 32 32" fill="none" xmlns="http://www.w3.org/2000/svg">
<path fill-rule="evenodd" clip-rule="evenodd" d="M16 2.66666C8.63622 2.66666 2.66669 8.6362 2.66669 16C2.66669 23.3637 8.63622 29.3333 16 29.3333C23.3638 29.3333 29.3334 23.3637 29.3334 16C29.3334 8.6362 23.3638 2.66666 16 2.66666ZM17.3334 9.33333C17.3334 8.59696 16.7364 8 16 8C15.2636 8 14.6667 8.59696 14.6667 9.33333V16C14.6667 16.7364 15.2636 17.3333 16 17.3333C16.7364 17.3333 17.3334 16.7364 17.3334 16V9.33333Z" fill="#201A13"/>
<path fill-rule="evenodd" clip-rule="evenodd" d="M25.7239 3.05718C25.2032 3.57789 25.2032 4.4221 25.7239 4.94281L27.0572 6.27614C27.5779 6.79684 28.4221 6.79684 28.9428 6.27614C29.4635 5.75544 29.4635 4.91122 28.9428 4.39052L27.6095 3.05718C27.0888 2.53649 26.2445 2.53649 25.7239 3.05718Z" fill="#201A13"/>
</svg>
