<svg width="32" height="32" viewBox="0 0 32 32" fill="none" xmlns="http://www.w3.org/2000/svg">
<path fill-rule="evenodd" clip-rule="evenodd" d="M13.4814 2.66667C12.4996 2.66667 11.7037 3.4626 11.7037 4.44444C11.7037 4.93536 11.3057 5.33333 10.8148 5.33333H10.6666H6.66665C5.93027 5.33333 5.33331 5.93029 5.33331 6.66667C5.33331 7.40304 5.93027 8 6.66665 8H10.6666H10.8148H21.183H21.1852H21.3333H25.3333C26.0697 8 26.6666 7.40304 26.6666 6.66667C26.6666 5.93029 26.0697 5.33333 25.3333 5.33333H21.1841C20.6937 5.33275 20.2962 4.93501 20.2962 4.44444C20.2962 3.4626 19.5004 2.66667 18.5185 2.66667H13.4814Z" fill="#201A13"/>
<path fill-rule="evenodd" clip-rule="evenodd" d="M8.00002 10.6667C7.62715 10.6667 7.27133 10.8228 7.01885 11.0972C6.76638 11.3716 6.64033 11.7391 6.6713 12.1107L7.69898 24.4429C7.92933 27.2072 10.2401 29.3333 13.0139 29.3333H18.9862C21.76 29.3333 24.0707 27.2072 24.3011 24.4429L25.3287 12.1107C25.3598 11.7391 25.2336 11.3716 24.9812 11.0972C24.7287 10.8228 24.373 10.6667 24 10.6667H8.00002Z" fill="#201A13"/>
</svg>
