<svg width="32" height="32" viewBox="0 0 32 32" fill="none" xmlns="http://www.w3.org/2000/svg">
<g clip-path="url(#clip0_78_5623)">
<path fill-rule="evenodd" clip-rule="evenodd" d="M2.66669 16C2.66669 8.6362 8.63622 2.66667 16 2.66667C23.3638 2.66667 29.3334 8.6362 29.3334 16C29.3334 23.3637 23.3638 29.3333 16 29.3333C8.63622 29.3333 2.66669 23.3637 2.66669 16ZM15.9999 8C13.0544 8 10.6666 10.3878 10.6666 13.3333C10.6666 16.2788 13.0544 18.6667 15.9999 18.6667C18.9454 18.6667 21.3332 16.2788 21.3332 13.3333C21.3332 10.3878 18.9454 8 15.9999 8ZM22.8154 21.3299C23.8258 21.9805 23.7764 23.3988 22.8563 24.1717C21.0023 25.7288 18.6108 26.6667 16.0002 26.6667C13.4068 26.6667 11.0296 25.7412 9.18077 24.2024C8.25243 23.4297 8.20325 22.0043 9.21803 21.3493C9.53394 21.1455 9.87797 20.9668 10.2513 20.8129C11.7536 20.1936 13.6723 20 16 20C18.3395 20 20.2691 20.1812 21.7752 20.7939C22.1515 20.9469 22.4979 21.1255 22.8154 21.3299Z" fill="#201A13"/>
</g>
<defs>
<clipPath id="clip0_78_5623">
<rect width="32" height="32" fill="white"/>
</clipPath>
</defs>
</svg>
