<svg width="32" height="32" viewBox="0 0 32 32" fill="none" xmlns="http://www.w3.org/2000/svg">
<g clip-path="url(#clip0_78_5622)">
<path fill-rule="evenodd" clip-rule="evenodd" d="M6.66669 12.6667C6.66669 9.35296 9.35298 6.66667 12.6667 6.66667C15.9804 6.66667 18.6667 9.35296 18.6667 12.6667C18.6667 15.9804 15.9804 18.6667 12.6667 18.6667C9.35298 18.6667 6.66669 15.9804 6.66669 12.6667Z" fill="#201A13"/>
<path d="M19.1567 16.0843C19.096 16.1992 19.1217 16.3425 19.2261 16.4199C20.0016 16.9939 20.9612 17.3333 22 17.3333C24.5773 17.3333 26.6667 15.244 26.6667 12.6667C26.6667 10.0893 24.5773 8 22 8C20.9612 8 20.0016 8.33947 19.2261 8.91351C19.1217 8.99084 19.096 9.13411 19.1567 9.24905C19.6952 10.2696 20 11.4325 20 12.6667C20 13.9008 19.6952 15.0637 19.1567 16.0843Z" fill="#201A13"/>
<path fill-rule="evenodd" clip-rule="evenodd" d="M6.18818 20.9324C7.83133 20.2192 9.98725 20 12.6666 20C15.3482 20 17.5057 20.2196 19.1494 20.9344C20.94 21.7129 22.0282 23.0391 22.5986 24.9115C22.866 25.7891 22.2068 26.6667 21.2984 26.6667H4.03733C3.12783 26.6667 2.46725 25.7877 2.73541 24.9085C3.30657 23.0359 4.39649 21.7101 6.18818 20.9324Z" fill="#201A13"/>
<path d="M19.758 18.7152C19.206 18.7495 19.1736 19.4911 19.6808 19.7116C21.0707 20.316 22.1172 21.2057 22.8678 22.3413C23.4836 23.2732 24.44 24 25.557 24H27.9311C28.874 24 29.562 23.0631 29.2303 22.1477C29.2112 22.0951 29.1914 22.0428 29.1708 21.9909C28.7143 20.8381 27.9318 19.9895 26.7731 19.4485C25.6852 18.9407 24.3234 18.7311 22.719 18.6677L22.6926 18.6667H22.6663C21.7212 18.6667 20.7342 18.6545 19.758 18.7152Z" fill="#201A13"/>
</g>
<defs>
<clipPath id="clip0_78_5622">
<rect width="32" height="32" fill="white"/>
</clipPath>
</defs>
</svg>
