<svg width="32" height="32" viewBox="0 0 32 32" fill="none" xmlns="http://www.w3.org/2000/svg">
<g clip-path="url(#clip0_312_31178)">
<path d="M14.5778 20.8356H9.95554C9.75923 20.8356 9.59998 20.9948 9.59998 21.1911V30.1511C9.59998 30.3474 9.75916 30.5067 9.95554 30.5067H14.5778C14.7741 30.5067 14.9334 30.3475 14.9334 30.1511V21.1911C14.9334 20.9948 14.7742 20.8356 14.5778 20.8356Z" fill="#201A13"/>
<path d="M14.5778 11.2356H9.95554C9.75923 11.2356 9.59998 11.3948 9.59998 11.5911V18.3467C9.59998 18.543 9.75916 18.7023 9.95554 18.7023H14.5778C14.7741 18.7023 14.9334 18.5431 14.9334 18.3467V11.5911C14.9334 11.3948 14.7742 11.2356 14.5778 11.2356Z" fill="#201A13"/>
<path d="M22.0445 20.8356H17.4222C17.2259 20.8356 17.0667 20.9948 17.0667 21.1911V30.1511C17.0667 30.3474 17.2258 30.5067 17.4222 30.5067H22.0445C22.2408 30.5067 22.4 30.3475 22.4 30.1511V21.1911C22.4 20.9948 22.2408 20.8356 22.0445 20.8356Z" fill="#201A13"/>
<path d="M7.11112 11.2356H0.355563C0.15925 11.2356 0 11.3948 0 11.5911V18.3467C0 18.543 0.159188 18.7023 0.355563 18.7023H7.11112C7.30744 18.7023 7.46669 18.5431 7.46669 18.3467V11.5911C7.46669 11.3948 7.30744 11.2356 7.11112 11.2356Z" fill="#201A13"/>
<path d="M29.5109 3.41331H25.1733V2.56C25.1733 1.97093 24.6957 1.49331 24.1066 1.49331C23.5175 1.49331 23.04 1.97093 23.04 2.56V3.41331H8.96V2.56C8.96 1.97093 8.48244 1.49331 7.89331 1.49331C7.30419 1.49331 6.82662 1.97087 6.82662 2.56V3.41331H2.48906C1.11437 3.41331 0 4.52768 0 5.90237V8.74669C0 8.943 0.159188 9.10225 0.355563 9.10225H31.6444C31.8407 9.10225 32 8.94306 32 8.74669V5.90237C32 4.52768 30.8856 3.41331 29.5109 3.41331Z" fill="#201A13"/>
<path d="M7.11112 20.8356H0.355563C0.15925 20.8356 0 20.9948 0 21.1911V28.0184C0 29.3926 1.11413 30.5067 2.48831 30.5067H7.11112C7.30744 30.5067 7.46669 30.3475 7.46669 30.1511V21.1911C7.46669 20.9948 7.30744 20.8356 7.11112 20.8356Z" fill="#201A13"/>
<path d="M31.6445 20.8356H24.8889C24.6926 20.8356 24.5333 20.9948 24.5333 21.1911V30.1511C24.5333 30.3474 24.6926 30.5067 24.8889 30.5067H29.5117C30.886 30.5067 32 29.3926 32 28.0184V21.1911C32 20.9948 31.8408 20.8356 31.6445 20.8356Z" fill="#201A13"/>
<path d="M22.0445 11.2356H17.4222C17.2259 11.2356 17.0667 11.3948 17.0667 11.5911V18.3467C17.0667 18.543 17.2258 18.7023 17.4222 18.7023H22.0445C22.2408 18.7023 22.4 18.5431 22.4 18.3467V11.5911C22.4 11.3948 22.2408 11.2356 22.0445 11.2356Z" fill="#201A13"/>
<path d="M31.6445 11.2356H24.8889C24.6926 11.2356 24.5333 11.3948 24.5333 11.5911V18.3467C24.5333 18.543 24.6926 18.7023 24.8889 18.7023H31.6445C31.8408 18.7023 32 18.5431 32 18.3467V11.5911C32 11.3948 31.8408 11.2356 31.6445 11.2356Z" fill="#201A13"/>
</g>
<defs>
<clipPath id="clip0_312_31178">
<rect width="32" height="32" fill="white"/>
</clipPath>
</defs>
</svg>
