<svg width="32" height="32" viewBox="0 0 32 32" fill="none" xmlns="http://www.w3.org/2000/svg">
<g clip-path="url(#clip0_78_5620)">
<path fill-rule="evenodd" clip-rule="evenodd" d="M2.66663 16C2.66663 8.6362 8.63616 2.66667 16 2.66667C23.3637 2.66667 29.3333 8.6362 29.3333 16C29.3333 23.3637 23.3637 29.3333 16 29.3333C8.63616 29.3333 2.66663 23.3637 2.66663 16ZM12.9428 11.0572C12.4221 10.5365 11.5779 10.5365 11.0571 11.0572C10.5365 11.5779 10.5365 12.4221 11.0571 12.9428L14.1144 16L11.0571 19.0572C10.5365 19.5779 10.5365 20.4221 11.0571 20.9428C11.5779 21.4635 12.4221 21.4635 12.9428 20.9428L16 17.8856L19.0572 20.9428C19.5778 21.4635 20.4221 21.4635 20.9428 20.9428C21.4634 20.4221 21.4634 19.5779 20.9428 19.0572L17.8856 16L20.9428 12.9428C21.4634 12.4221 21.4634 11.5779 20.9428 11.0572C20.4221 10.5365 19.5778 10.5365 19.0572 11.0572L16 14.1144L12.9428 11.0572Z" fill="#201A13"/>
</g>
<defs>
<clipPath id="clip0_78_5620">
<rect width="32" height="32" fill="white"/>
</clipPath>
</defs>
</svg>
