<svg width="32" height="32" viewBox="0 0 32 32" fill="none" xmlns="http://www.w3.org/2000/svg">
<g clip-path="url(#clip0_1197_5908)">
<path d="M11.5556 1.77783C9.89444 1.77783 8.51667 2.91672 8.12222 4.45561C8.07778 4.45561 8.04444 4.4445 8 4.4445C6.03889 4.4445 4.44444 6.03894 4.44444 8.00005C4.44444 8.26672 4.47778 8.52783 4.53889 8.77783C2.91667 9.4445 1.77778 11.0334 1.77778 12.8889C1.77778 13.5889 1.95556 14.2389 2.23889 14.8278C0.905556 15.5945 0 17.0167 0 18.6667C0 20.5167 1.13333 22.1056 2.74444 22.7723C2.69444 23.0278 2.66667 23.2889 2.66667 23.5556C2.66667 25.7667 4.45556 27.5556 6.66667 27.5556C6.89444 27.5556 7.11667 27.5278 7.33333 27.4889C7.86667 29.0723 9.34444 30.2223 11.1111 30.2223C13.3222 30.2223 15.1111 28.4334 15.1111 26.2223V5.33339C15.1111 3.37228 13.5167 1.77783 11.5556 1.77783ZM32 18.6667C32 17.0167 31.0944 15.5945 29.7611 14.8278C30.05 14.2389 30.2222 13.5889 30.2222 12.8889C30.2222 11.0334 29.0833 9.4445 27.4611 8.77783C27.5167 8.52783 27.5556 8.26672 27.5556 8.00005C27.5556 6.03894 25.9611 4.4445 24 4.4445C23.9556 4.4445 23.9167 4.45561 23.8778 4.45561C23.4833 2.91672 22.1056 1.77783 20.4444 1.77783C18.4833 1.77783 16.8889 3.36672 16.8889 5.33339V26.2223C16.8889 28.4334 18.6778 30.2223 20.8889 30.2223C22.6556 30.2223 24.1333 29.0723 24.6667 27.4889C24.8833 27.5278 25.1056 27.5556 25.3333 27.5556C27.5444 27.5556 29.3333 25.7667 29.3333 23.5556C29.3333 23.2889 29.3056 23.0278 29.2556 22.7723C30.8667 22.1056 32 20.5167 32 18.6667Z" fill="#9F2500"/>
</g>
<defs>
<clipPath id="clip0_1197_5908">
<rect width="32" height="32" fill="white"/>
</clipPath>
</defs>
</svg>
