<svg width="32" height="32" viewBox="0 0 32 32" fill="none" xmlns="http://www.w3.org/2000/svg">
<g clip-path="url(#clip0_1430_10560)">
<path fill-rule="evenodd" clip-rule="evenodd" d="M2.6665 15.9998C2.6665 8.63604 8.63604 2.6665 15.9998 2.6665C23.3636 2.6665 29.3332 8.63604 29.3332 15.9998C29.3332 23.3636 23.3636 29.3332 15.9998 29.3332C8.63604 29.3332 2.6665 23.3636 2.6665 15.9998ZM12.9427 11.057C12.4219 10.5363 11.5777 10.5363 11.057 11.057C10.5363 11.5777 10.5363 12.4219 11.057 12.9427L14.1142 15.9998L11.057 19.057C10.5363 19.5777 10.5363 20.422 11.057 20.9426C11.5777 21.4633 12.4219 21.4633 12.9427 20.9426L15.9998 17.8854L19.057 20.9426C19.5777 21.4633 20.422 21.4633 20.9426 20.9426C21.4633 20.422 21.4633 19.5777 20.9426 19.057L17.8854 15.9998L20.9426 12.9427C21.4633 12.4219 21.4633 11.5777 20.9426 11.057C20.422 10.5363 19.5777 10.5363 19.057 11.057L15.9998 14.1142L12.9427 11.057Z" fill="#201A13"/>
</g>
<defs>
<clipPath id="clip0_1430_10560">
<rect width="32" height="32" fill="white"/>
</clipPath>
</defs>
</svg>
