<svg width="30" height="32" viewBox="0 0 30 32" fill="none" xmlns="http://www.w3.org/2000/svg">
<path d="M24.2123 25.2121C27.1531 25.2121 29.5456 22.8195 29.5456 19.8787C29.5456 16.9379 27.153 14.5454 24.2123 14.5454H22.2729H2.87884C2.44309 14.5454 2.03028 14.7408 1.7539 15.0778C1.47765 15.4148 1.36709 15.8579 1.45253 16.2852L4.01372 29.0909H1.90916C1.10584 29.0909 0.45459 29.7421 0.45459 30.5454C0.45459 31.3488 1.10584 32 1.90916 32H5.78797H19.3638H23.2426C24.0459 32 24.6971 31.3488 24.6971 30.5454C24.6971 29.7421 24.0459 29.0909 23.2426 29.0909H21.138L21.9138 25.2121H24.2123ZM23.4653 17.4545H24.2122C25.549 17.4545 26.6365 18.542 26.6365 19.8787C26.6365 21.2155 25.549 22.303 24.2122 22.303H22.4956L23.4653 17.4545Z" fill="#367147"/>
<path d="M10.21 6.24398C9.49678 5.53098 9.18153 5.18129 9.18159 4.36367C9.18147 3.54604 9.49684 3.19635 10.2102 2.4831C10.7783 1.91522 10.7784 0.994221 10.2105 0.426157C9.64247 -0.141907 8.72153 -0.142094 8.1534 0.425845C7.35953 1.21953 6.27221 2.30647 6.27246 4.3636C6.27215 6.42061 7.35921 7.50748 8.1529 8.30105C8.86622 9.01424 9.18153 9.36411 9.18153 10.1818C9.18153 10.9851 9.83278 11.6364 10.6361 11.6364C11.4394 11.6364 12.0907 10.9851 12.0907 10.1818C12.0907 8.12461 11.0037 7.03761 10.21 6.24398Z" fill="#367147"/>
<path d="M16.9981 6.24398C16.2849 5.53098 15.9696 5.18129 15.9697 4.36367C15.9696 3.54604 16.2849 3.19635 16.9982 2.4831C17.5664 1.91522 17.5665 0.994221 16.9986 0.426157C16.4307 -0.141907 15.5097 -0.142094 14.9415 0.425845C14.1476 1.21953 13.0603 2.30647 13.0605 4.3636C13.0602 6.42061 14.1473 7.50748 14.941 8.30105C15.6543 9.01424 15.9696 9.36411 15.9696 10.1818C15.9696 10.9851 16.6209 11.6364 17.4242 11.6364C18.2275 11.6364 18.8787 10.9851 18.8787 10.1818C18.8787 8.12461 17.7917 7.03761 16.9981 6.24398Z" fill="#367147"/>
</svg>
