<svg width="32" height="32" viewBox="0 0 32 32" fill="none" xmlns="http://www.w3.org/2000/svg">
<path fill-rule="evenodd" clip-rule="evenodd" d="M3.38384 5.48416C3.60016 5.37164 3.8432 5.3206 4.08651 5.33659C4.32982 5.35257 4.56409 5.43498 4.76384 5.57483L18.0972 14.9082C18.2727 15.0311 18.416 15.1946 18.5149 15.3847C18.6138 15.5747 18.6654 15.7859 18.6654 16.0002C18.6654 16.2144 18.6138 16.4256 18.5149 16.6157C18.416 16.8058 18.2727 16.9692 18.0972 17.0922L4.76384 26.4255C4.56405 26.5652 4.32979 26.6474 4.08652 26.6633C3.84326 26.6791 3.60031 26.628 3.38408 26.5154C3.16786 26.4028 2.98664 26.2331 2.86012 26.0247C2.73361 25.8163 2.66664 25.5773 2.6665 25.3335V6.66683C2.66647 6.42295 2.73334 6.18373 2.85982 5.9752C2.98629 5.76668 3.16754 5.59684 3.38384 5.48416ZM21.3332 7.7335C21.3332 7.09698 21.586 6.48653 22.0361 6.03644C22.4862 5.58635 23.0966 5.3335 23.7332 5.3335H25.5998C25.915 5.3335 26.2271 5.39557 26.5183 5.51619C26.8095 5.6368 27.074 5.81358 27.2969 6.03644C27.5198 6.2593 27.6965 6.52387 27.8171 6.81506C27.9378 7.10624 27.9998 7.41832 27.9998 7.7335V24.2668C27.9998 24.582 27.9378 24.8941 27.8171 25.1853C27.6965 25.4764 27.5198 25.741 27.2969 25.9639C27.074 26.1867 26.8095 26.3635 26.5183 26.4841C26.2271 26.6048 25.915 26.6668 25.5998 26.6668H23.7332C23.0966 26.6668 22.4862 26.414 22.0361 25.9639C21.586 25.5138 21.3332 24.9033 21.3332 24.2668V7.7335Z" fill="#020201"/>
</svg>
