<svg width="32" height="32" viewBox="0 0 32 32" fill="none" xmlns="http://www.w3.org/2000/svg">
<g clip-path="url(#clip0_1197_2872)">
<path fill-rule="evenodd" clip-rule="evenodd" d="M26.6668 6.66675V25.3334C26.6668 27.5426 24.876 29.3334 22.6668 29.3334H21.3335C19.1243 29.3334 17.3335 27.5426 17.3335 25.3334V6.66675C17.3335 4.4576 19.1243 2.66675 21.3335 2.66675H22.6668C24.876 2.66675 26.6668 4.45761 26.6668 6.66675Z" fill="#237589"/>
<path fill-rule="evenodd" clip-rule="evenodd" d="M10.6668 2.66675C12.876 2.66675 14.6668 4.45761 14.6668 6.66675V25.3334C14.6668 27.5426 12.876 29.3334 10.6668 29.3334H9.3335C7.12436 29.3334 5.3335 27.5426 5.3335 25.3334V6.66675C5.3335 4.4576 7.12436 2.66675 9.3335 2.66675H10.6668Z" fill="#237589"/>
</g>
<defs>
<clipPath id="clip0_1197_2872">
<rect width="32" height="32" fill="white"/>
</clipPath>
</defs>
</svg>
