<svg width="33" height="32" viewBox="0 0 33 32" fill="none" xmlns="http://www.w3.org/2000/svg">
<path fill-rule="evenodd" clip-rule="evenodd" d="M16.5 27.9998C16.5 27.2634 17.0969 26.6665 17.8333 26.6665H28.5C29.2364 26.6665 29.8333 27.2634 29.8333 27.9998C29.8333 28.7362 29.2364 29.3332 28.5 29.3332H17.8333C17.0969 29.3332 16.5 28.7362 16.5 27.9998Z" fill="#201A13"/>
<path fill-rule="evenodd" clip-rule="evenodd" d="M28.198 10.7998C30.3444 8.64491 30.2532 5.81519 28.6505 4.08227C27.8689 3.2373 26.7566 2.69757 25.4968 2.66781C24.2322 2.63794 22.9221 3.12153 21.7132 4.13297C21.6822 4.15883 21.6525 4.18609 21.6241 4.21465L4.33245 21.5753C3.58574 22.3249 3.1665 23.34 3.1665 24.3981V26.6561C3.1665 28.1248 4.3558 29.3332 5.83828 29.3332H8.0767C9.14033 29.3332 10.1602 28.9096 10.9108 28.156L28.198 10.7998ZM23.4426 7.72377C22.922 7.20307 22.0777 7.20307 21.557 7.72377C21.0364 8.24447 21.0364 9.08869 21.557 9.60939L22.8904 10.9427C23.411 11.4634 24.2553 11.4634 24.776 10.9427C25.2966 10.422 25.2966 9.57781 24.776 9.0571L23.4426 7.72377Z" fill="#201A13"/>
</svg>
