<svg width="32" height="32" viewBox="0 0 32 32" fill="none" xmlns="http://www.w3.org/2000/svg">
<path d="M11.5306 13.7871L14.7191 16.2465C14.842 17.2378 15.6776 18.0085 16.7022 18.0085C17.8119 18.0085 18.711 17.1088 18.711 15.9997C18.711 15.9572 18.7012 15.9168 18.6982 15.8748L23.3706 10.3473C23.6962 9.98165 23.7024 9.45477 23.3839 9.17215C23.0659 8.88896 22.5441 8.95652 22.2184 9.32265L17.628 14.227C17.3494 14.0811 17.0381 13.991 16.7022 13.991C16.3433 13.991 16.0109 14.0928 15.7191 14.2583L12.7174 12.1681C12.3303 11.8829 11.7497 12.015 11.4214 12.4626C11.0944 12.909 11.1425 13.5025 11.5306 13.7871Z" fill="#020201"/>
<path d="M27.5196 5.18301C24.7571 2.41695 20.9208 0.701575 16.7021 0.702637V4.41082C19.9085 4.41189 22.7939 5.70532 24.8973 7.8052C26.9967 9.90814 28.2902 12.794 28.2912 15.9999C28.2902 19.2058 26.9967 22.0917 24.8973 24.1947C22.7939 26.2951 19.9085 27.5885 16.7021 27.589C13.4962 27.5885 10.6103 26.2951 8.50735 24.1947C6.40747 22.0917 5.11403 19.2058 5.11303 15.9999C5.11353 14.9487 5.25691 13.9364 5.51703 12.9722L7.01991 13.9083C7.2191 14.0317 7.46128 14.0578 7.65997 13.9764C7.86016 13.8939 7.99122 13.7163 8.0066 13.5033L8.65385 5.02739C8.67122 4.78464 8.5381 4.53989 8.31185 4.39757C8.08347 4.25732 7.80441 4.24445 7.59497 4.36889L0.273221 8.68589C0.0884086 8.79395 -0.0130289 8.98951 0.00134606 9.20457C0.0156586 9.4207 0.145221 9.62601 0.344909 9.74989L2.26353 10.945C1.70903 12.5298 1.40435 14.2319 1.40435 15.9999C1.40335 20.2181 3.11972 24.0544 5.88478 26.8174C8.64772 29.5825 12.4835 31.2988 16.7022 31.2978C20.9204 31.2988 24.7572 29.5825 27.5197 26.8174C30.2847 24.0544 32.0011 20.2181 32 15.9999C32.001 11.7813 30.2846 7.94501 27.5196 5.18301Z" fill="#020201"/>
</svg>
