<svg width="57" height="56" viewBox="0 0 57 56" fill="none" xmlns="http://www.w3.org/2000/svg">
<g clip-path="url(#clip0_587_82697)">
<path d="M48.5 28C48.5 16.9543 39.5457 8.00005 28.5 8.00005C17.4543 8.00005 8.5 16.9543 8.5 28C8.5 37.9826 15.8137 46.2567 25.375 47.7571V33.7813H20.2969V28H25.375V23.5938C25.375 18.5813 28.3609 15.8125 32.9293 15.8125C35.1175 15.8125 37.4062 16.2032 37.4062 16.2032V21.125H34.8843C32.3998 21.125 31.625 22.6667 31.625 24.2484V28H37.1719L36.2852 33.7813H31.625V47.7571C41.1863 46.2567 48.5 37.9826 48.5 28Z" fill="#1877F2"/>
<path d="M36.2852 33.7812L37.1719 28H31.625V24.2483C31.625 22.6667 32.3998 21.125 34.8843 21.125H37.4063V16.2031C37.4063 16.2031 35.1175 15.8125 32.9293 15.8125C28.3609 15.8125 25.375 18.5812 25.375 23.5938V28H20.2969V33.7812H25.375V47.757C26.3932 47.9168 27.4369 48 28.5 48C29.5631 48 30.6068 47.9168 31.625 47.757V33.7812H36.2852Z" fill="white"/>
</g>
<defs>
<clipPath id="clip0_587_82697">
<rect width="40" height="40" fill="white" transform="translate(8.5 8)"/>
</clipPath>
</defs>
</svg>
