<svg width="57" height="56" viewBox="0 0 57 56" fill="none" xmlns="http://www.w3.org/2000/svg">
<path d="M46.1 28.4167C46.1 27.1167 45.9833 25.8667 45.7667 24.6667H28.5V31.7584H38.3667C37.9417 34.0501 36.65 35.9917 34.7083 37.2917V41.8917H40.6333C44.1 38.7001 46.1 34.0001 46.1 28.4167Z" fill="#4285F4"/>
<path d="M28.5 46.3334C33.45 46.3334 37.6 44.6917 40.6334 41.8917L34.7084 37.2917C33.0667 38.3917 30.9667 39.0417 28.5 39.0417C23.725 39.0417 19.6834 35.8167 18.2417 31.4834H12.1167V36.2334C15.1334 42.2251 21.3334 46.3334 28.5 46.3334Z" fill="#34A853"/>
<path d="M18.2417 31.4833C17.8751 30.3833 17.6667 29.2083 17.6667 27.9999C17.6667 26.7916 17.8751 25.6166 18.2417 24.5166V19.7666H12.1167C10.8334 22.3214 10.1656 25.141 10.1667 27.9999C10.1667 30.9583 10.8751 33.7583 12.1167 36.2333L18.2417 31.4833Z" fill="#FBBC05"/>
<path d="M28.5 16.9584C31.1917 16.9584 33.6084 17.8834 35.5084 19.7001L40.7667 14.4417C37.5917 11.4834 33.4417 9.66675 28.5 9.66675C21.3334 9.66675 15.1334 13.7751 12.1167 19.7667L18.2417 24.5167C19.6834 20.1834 23.725 16.9584 28.5 16.9584Z" fill="#EA4335"/>
</svg>
